<!-- Created with Inkscape (http://www.inkscape.org/) -->
<svg xmlns:rdf="http://www.w3.org/1999/02/22-rdf-syntax-ns#" xmlns="http://www.w3.org/2000/svg" version="1.1" xmlns:cc="http://creativecommons.org/ns#" xmlns:dc="http://purl.org/dc/elements/1.1/" viewBox="0 0 51.182 49.618">
 <metadata>
  <rdf:RDF>
   <cc:Work rdf:about="">
    <dc:format>image/svg+xml</dc:format>
    <dc:type rdf:resource="http://purl.org/dc/dcmitype/StillImage"/>
    <dc:title/>
   </cc:Work>
  </rdf:RDF>
 </metadata>
 <g transform="translate(-118.05087,-637.74865)">
  <g stroke-linejoin="miter" transform="matrix(2.4584493,0,0,2.4584493,-646.0825,2063.2603)" stroke-dashoffset="5.60000009" stroke-linecap="butt" stroke-miterlimit="4" stroke-dasharray="none" stroke-width="1.62704194" fill="none">
   <g transform="translate(-6.125,-0.125)" stroke="#00f2ff">
    <path d="m359.61,835.58c0.11532,3.8639-2.9235,7.0897-6.7874,7.205-0.42594,0.0127-0.85215-0.0135-1.2733-0.0783" transform="matrix(0.33806731,0.33806731,-0.33806731,0.33806731,492.10372,-971.84371)" stroke-width="3.40314579"/>
    <rect transform="matrix(0.70710678,0.70710678,-0.70710678,0.70710678,0,0)" rx="0" ry="0" height="5.4582" width="0.064981" y="-641.75" x="-167.33" stroke-width="1.627"/>
    <path d="m359.61,835.58c0.11532,3.8639-2.9235,7.0897-6.7874,7.205-3.8639,0.11532-7.0897-2.9235-7.205-6.7874-0.004-0.12928-0.004-0.25864-0.00082-0.38794" transform="matrix(0.33806731,0.33806731,0.33806731,-0.33806731,-68.155123,-411.5849)" stroke-width="3.40314579"/>
    <rect transform="matrix(0.70710678,0.70710678,-0.70710678,0.70710678,0,0)" rx="0" ry="0" height="1.9526" width="0.042428" y="-641.68" x="-174.03" stroke-width="1.627"/>
    <path d="m359.61,835.58c0.11532,3.8639-2.9235,7.0897-6.7874,7.205-0.42594,0.0127-0.85215-0.0135-1.2733-0.0783" transform="matrix(-0.33806731,-0.33806731,0.33806731,-0.33806731,163.7287,-166.7824)" stroke-width="3.40314579"/>
    <rect transform="matrix(-0.70710678,-0.70710678,0.70710678,-0.70710678,0,0)" rx="0" ry="0" height="5.4582" width="0.064981" y="627.12" x="174.06" stroke-width="1.627"/>
    <path d="m359.61,835.58c0.11532,3.8639-2.9235,7.0897-6.7874,7.205-3.8639,0.11532-7.0897-2.9235-7.205-6.7874-0.004-0.12928-0.004-0.25864-0.00082-0.38794" transform="matrix(-0.33806731,-0.33806731,-0.33806731,0.33806731,723.98755,-727.04122)" stroke-width="3.40314579"/>
    <rect transform="matrix(-0.70710678,-0.70710678,0.70710678,-0.70710678,0,0)" rx="0" ry="0" height="1.9526" width="0.042428" y="627.19" x="167.36" stroke-width="1.627"/>
   </g>
   <g transform="translate(21.25,-0.5)" stroke="#0000ad">
    <path d="m359.61,835.58c0.11532,3.8639-2.9235,7.0897-6.7874,7.205-0.42594,0.0127-0.85215-0.0135-1.2733-0.0783" transform="matrix(0.33806731,0.33806731,-0.33806731,0.33806731,463.60372,-972.09371)" stroke-width="3.40314579"/>
    <rect transform="matrix(0.70710678,0.70710678,-0.70710678,0.70710678,0,0)" rx="0" ry="0" height="5.4582" width="0.064981" y="-621.77" x="-187.66" stroke-width="1.627"/>
    <path d="m359.61,835.58c0.11532,3.8639-2.9235,7.0897-6.7874,7.205-3.8639,0.11532-7.0897-2.9235-7.205-6.7874-0.004-0.12928-0.004-0.25864-0.00082-0.38794" transform="matrix(0.33806731,0.33806731,0.33806731,-0.33806731,-96.65512,-411.8349)" stroke-width="3.40314579"/>
    <rect transform="matrix(0.70710678,0.70710678,-0.70710678,0.70710678,0,0)" rx="0" ry="0" height="1.9526" width="0.042428" y="-621.71" x="-194.36" stroke-width="1.627"/>
    <path d="m359.61,835.58c0.11532,3.8639-2.9235,7.0897-6.7874,7.205-0.42594,0.0127-0.85215-0.0135-1.2733-0.0783" transform="matrix(-0.33806731,-0.33806731,0.33806731,-0.33806731,135.2287,-167.0324)" stroke-width="3.40314579"/>
    <rect transform="matrix(-0.70710678,-0.70710678,0.70710678,-0.70710678,0,0)" rx="0" ry="0" height="5.4582" width="0.064981" y="607.15" x="194.39" stroke-width="1.627"/>
    <path d="m359.61,835.58c0.11532,3.8639-2.9235,7.0897-6.7874,7.205-3.8639,0.11532-7.0897-2.9235-7.205-6.7874-0.004-0.12928-0.004-0.25864-0.00082-0.38794" transform="matrix(-0.33806731,-0.33806731,-0.33806731,0.33806731,695.48755,-727.29122)" stroke-width="3.40314579"/>
    <rect transform="matrix(-0.70710678,-0.70710678,0.70710678,-0.70710678,0,0)" rx="0" ry="0" height="1.9526" width="0.042428" y="607.22" x="187.69" stroke-width="1.627"/>
   </g>
  </g>
 </g>
</svg>
