<?xml version="1.0" encoding="UTF-8" standalone="no"?>
<!-- Created with Inkscape (http://www.inkscape.org/) -->
<svg id="svg4119" xmlns:rdf="http://www.w3.org/1999/02/22-rdf-syntax-ns#" xmlns="http://www.w3.org/2000/svg" viewBox="0 0 20.97 20.334" version="1.1" xmlns:cc="http://creativecommons.org/ns#" xmlns:xlink="http://www.w3.org/1999/xlink" xmlns:dc="http://purl.org/dc/elements/1.1/">
 <defs id="defs4121"></defs>
 <metadata id="metadata4124">
  <rdf:RDF>
   <cc:Work rdf:about="">
    <dc:format>image/svg+xml</dc:format>
    <dc:type rdf:resource="http://purl.org/dc/dcmitype/StillImage"/>
    <dc:title/>
   </cc:Work>
  </rdf:RDF>
 </metadata>
 <g id="layer1" stroke-linejoin="miter" stroke-dashoffset="5.60000009" transform="translate(-486.29363,-127.17247)" stroke-linecap="butt" stroke-miterlimit="4" stroke-dasharray="none" fill="none">
  <g id="g8520" transform="translate(169.42491,706.96479)" stroke="#00f2ff">
   <path id="path4180-3-3-8" d="m359.61,835.58c0.11532,3.8639-2.9235,7.0897-6.7874,7.205-0.42594,0.0127-0.85215-0.0135-1.2733-0.0783" transform="matrix(0.33806731,0.33806731,-0.33806731,0.33806731,492.10372,-971.84371)" stroke-width="3.73562503"/>
   <rect id="rect4200-6-3-8" ry="0" rx="0" transform="matrix(0.70710678,0.70710678,-0.70710678,0.70710678,0,0)" height="5.4582" width="0.064981" y="-641.75" x="-167.33" stroke-width="1.786"/>
   <path id="path4180-0-7-3-9" d="m359.61,835.58c0.11532,3.8639-2.9235,7.0897-6.7874,7.205-3.8639,0.11532-7.0897-2.9235-7.205-6.7874-0.004-0.12928-0.004-0.25864-0.00082-0.38794" transform="matrix(0.33806731,0.33806731,0.33806731,-0.33806731,-68.155123,-411.5849)" stroke-width="3.73562503"/>
   <rect id="rect4200-2-5-8-7" ry="0" rx="0" transform="matrix(0.70710678,0.70710678,-0.70710678,0.70710678,0,0)" height="1.9526" width="0.042428" y="-641.68" x="-174.03" stroke-width="1.786"/>
   <path id="path4180-3-2-6-7" d="m359.61,835.58c0.11532,3.8639-2.9235,7.0897-6.7874,7.205-0.42594,0.0127-0.85215-0.0135-1.2733-0.0783" transform="matrix(-0.33806731,-0.33806731,0.33806731,-0.33806731,163.7287,-166.7824)" stroke-width="3.73562503"/>
   <rect id="rect4200-6-0-0-6" ry="0" rx="0" transform="matrix(-0.70710678,-0.70710678,0.70710678,-0.70710678,0,0)" height="5.4582" width="0.064981" y="627.12" x="174.06" stroke-width="1.786"/>
   <path id="path4180-0-7-2-4-4" d="m359.61,835.58c0.11532,3.8639-2.9235,7.0897-6.7874,7.205-3.8639,0.11532-7.0897-2.9235-7.205-6.7874-0.004-0.12928-0.004-0.25864-0.00082-0.38794" transform="matrix(-0.33806731,-0.33806731,-0.33806731,0.33806731,723.98755,-727.04122)" stroke-width="3.73562503"/>
   <rect id="rect4200-2-5-3-8-3" ry="0" rx="0" transform="matrix(-0.70710678,-0.70710678,0.70710678,-0.70710678,0,0)" height="1.9526" width="0.042428" y="627.19" x="167.36" stroke-width="1.786"/>
  </g>
  <g id="g8510" transform="translate(196.79991,706.58979)" stroke="#0000ad">
   <path id="path4180-3-3" d="m359.61,835.58c0.11532,3.8639-2.9235,7.0897-6.7874,7.205-0.42594,0.0127-0.85215-0.0135-1.2733-0.0783" transform="matrix(0.33806731,0.33806731,-0.33806731,0.33806731,463.60372,-972.09371)" stroke-width="3.73562503"/>
   <rect id="rect4200-6-3" ry="0" rx="0" transform="matrix(0.70710678,0.70710678,-0.70710678,0.70710678,0,0)" height="5.4582" width="0.064981" y="-621.77" x="-187.66" stroke-width="1.786"/>
   <path id="path4180-0-7-3" d="m359.61,835.58c0.11532,3.8639-2.9235,7.0897-6.7874,7.205-3.8639,0.11532-7.0897-2.9235-7.205-6.7874-0.004-0.12928-0.004-0.25864-0.00082-0.38794" transform="matrix(0.33806731,0.33806731,0.33806731,-0.33806731,-96.65512,-411.8349)" stroke-width="3.73562503"/>
   <rect id="rect4200-2-5-8" ry="0" rx="0" transform="matrix(0.70710678,0.70710678,-0.70710678,0.70710678,0,0)" height="1.9526" width="0.042428" y="-621.71" x="-194.36" stroke-width="1.786"/>
   <path id="path4180-3-2-6" d="m359.61,835.58c0.11532,3.8639-2.9235,7.0897-6.7874,7.205-0.42594,0.0127-0.85215-0.0135-1.2733-0.0783" transform="matrix(-0.33806731,-0.33806731,0.33806731,-0.33806731,135.2287,-167.0324)" stroke-width="3.73562503"/>
   <rect id="rect4200-6-0-0" ry="0" rx="0" transform="matrix(-0.70710678,-0.70710678,0.70710678,-0.70710678,0,0)" height="5.4582" width="0.064981" y="607.15" x="194.39" stroke-width="1.786"/>
   <path id="path4180-0-7-2-4" d="m359.61,835.58c0.11532,3.8639-2.9235,7.0897-6.7874,7.205-3.8639,0.11532-7.0897-2.9235-7.205-6.7874-0.004-0.12928-0.004-0.25864-0.00082-0.38794" transform="matrix(-0.33806731,-0.33806731,-0.33806731,0.33806731,695.48755,-727.29122)" stroke-width="3.73562503"/>
   <rect id="rect4200-2-5-3-8" ry="0" rx="0" transform="matrix(-0.70710678,-0.70710678,0.70710678,-0.70710678,0,0)" height="1.9526" width="0.042428" y="607.22" x="187.69" stroke-width="1.786"/>
  </g>
 </g>
</svg>
