<!-- Created with Inkscape (http://www.inkscape.org/) -->
<svg id="svg3024" xmlns:rdf="http://www.w3.org/1999/02/22-rdf-syntax-ns#" xmlns="http://www.w3.org/2000/svg" viewBox="0 0 19.86 19.713" version="1.1" xmlns:cc="http://creativecommons.org/ns#" xmlns:dc="http://purl.org/dc/elements/1.1/">
 <metadata id="metadata3029">
  <rdf:RDF>
   <cc:Work rdf:about="">
    <dc:format>image/svg+xml</dc:format>
    <dc:type rdf:resource="http://purl.org/dc/dcmitype/StillImage"/>
    <dc:title/>
   </cc:Work>
  </rdf:RDF>
 </metadata>
 <g id="layer1" stroke-linejoin="miter" stroke-dashoffset="5.60000009" transform="translate(-647.42291,-524.45994)" stroke="#0000ad" stroke-linecap="butt" stroke-dasharray="none" stroke-miterlimit="4" fill="#FFF">
  <path id="path4180-3" d="m359.61,835.58c0.11532,3.8639-2.9235,7.0897-6.7874,7.205-0.42594,0.0127-0.85215-0.0135-1.2733-0.0783" transform="matrix(0.33806731,0.33806731,-0.33806731,0.33806731,821.54018,131.78578)" stroke-width="3.73562503"/>
  <rect id="rect4200-6" transform="matrix(0.70710678,0.70710678,-0.70710678,0.70710678,0,0)" rx="0" ry="0" height="5.4582" width="0.064981" y="-94.312" x="846" stroke-width="1.786"/>
  <path id="path4180-0-7" d="m359.61,835.58c0.11532,3.8639-2.9235,7.0897-6.7874,7.205-3.8639,0.11532-7.0897-2.9235-7.205-6.7874-0.004-0.12928-0.004-0.25864-0.00082-0.38794" transform="matrix(0.33806731,0.33806731,0.33806731,-0.33806731,261.28134,692.04461)" stroke-width="3.73562503"/>
  <rect id="rect4200-2-5" transform="matrix(0.70710678,0.70710678,-0.70710678,0.70710678,0,0)" rx="0" ry="0" height="1.9526" width="0.042428" y="-94.246" x="839.3" stroke-width="1.786"/>
  <path id="path4180-3-2" d="m359.61,835.58c0.11532,3.8639-2.9235,7.0897-6.7874,7.205-0.42594,0.0127-0.85215-0.0135-1.2733-0.0783" transform="matrix(-0.33806731,-0.33806731,0.33806731,-0.33806731,493.16517,936.84711)" stroke-width="3.73562503"/>
  <rect id="rect4200-6-0" transform="matrix(-0.70710678,-0.70710678,0.70710678,-0.70710678,0,0)" rx="0" ry="0" height="5.4582" width="0.064981" y="79.688" x="-839.27" stroke-width="1.786"/>
  <path id="path4180-0-7-2" d="m359.61,835.58c0.11532,3.8639-2.9235,7.0897-6.7874,7.205-3.8639,0.11532-7.0897-2.9235-7.205-6.7874-0.004-0.12928-0.004-0.25864-0.00082-0.38794" transform="matrix(-0.33806731,-0.33806731,-0.33806731,0.33806731,1053.424,376.58829)" stroke-width="3.73562503"/>
  <rect id="rect4200-2-5-3" transform="matrix(-0.70710678,-0.70710678,0.70710678,-0.70710678,0,0)" rx="0" ry="0" height="1.9526" width="0.042428" y="79.754" x="-845.97" stroke-width="1.786"/>
 </g>
</svg>
