<!-- Created with Inkscape (http://www.inkscape.org/) -->
<svg xmlns:rdf="http://www.w3.org/1999/02/22-rdf-syntax-ns#" xmlns="http://www.w3.org/2000/svg" version="1.1" xmlns:cc="http://creativecommons.org/ns#" xmlns:xlink="http://www.w3.org/1999/xlink" viewBox="0 0 48.644 48.644" xmlns:dc="http://purl.org/dc/elements/1.1/">
 <defs>
  <linearGradient id="linearGradient7024" y2="157.9" gradientUnits="userSpaceOnUse" x2="65.623" y1="157.9" x1="36.822">
   <stop stop-color="#eaeaea" offset="0"/>
   <stop stop-color="#c6c6c6" offset="1"/>
  </linearGradient>
  <radialGradient id="radialGradient6351" gradientUnits="userSpaceOnUse" cx="758.06" cy="1197.4" r="10.933" gradientTransform="matrix(1,0,0,2.0405535,0,-1245.9954)">
   <stop stop-color="#ff2cf1" offset="0"/>
   <stop stop-color="#ff7ef1" offset="1"/>
  </radialGradient>
 </defs>
 <metadata>
  <rdf:RDF>
   <cc:Work rdf:about="">
    <dc:format>image/svg+xml</dc:format>
    <dc:type rdf:resource="http://purl.org/dc/dcmitype/StillImage"/>
    <dc:title/>
    <cc:license rdf:resource="https://www.gnu.org/licenses/gpl.html"/> 
    <dc:creator> 
     <cc:Agent> 
      <dc:title>Glen Reesor &lt;glen@glenreesor.ca&gt;</dc:title> 
     </cc:Agent> 
    </dc:creator>
   </cc:Work>
  </rdf:RDF>
 </metadata>
 <g transform="translate(-473.59488,-501.54752)">
  <g stroke-miterlimit="4" transform="translate(-269.84715,-44.090905)">
   <path d="m65.03,157.9c0,7.6258-6.182,13.808-13.808,13.808-7.6258,0-13.808-6.182-13.808-13.808,0-7.6258,6.182-13.808,13.808-13.808,7.6258,0,13.808,6.182,13.808,13.808z" transform="matrix(1.6882994,0,0,1.6882994,681.29151,303.36746)" stroke="#000" stroke-dasharray="none" stroke-width="1.18462396" fill="url(#linearGradient7024)"/>
   <path d="m747.27,1197.4,0-22.16,0.64287,0c2.4704,0.01,6.3448,1.0877,9.0318,2.5113,5.8005,3.0732,10.135,8.8057,11.425,15.108,1.7182,8.3981-1.3946,16.774-8.242,22.178-3.2423,2.5586-8.49,4.5204-12.092,4.5204h-0.76516v-22.16z" stroke-opacity="0" transform="translate(21.133227,-627.50049)" fill="url(#radialGradient6351)"/>
  </g>
 </g>
</svg>
