<!-- Created with Inkscape (http://www.inkscape.org/) -->
<svg xmlns:rdf="http://www.w3.org/1999/02/22-rdf-syntax-ns#" xmlns="http://www.w3.org/2000/svg" version="1.1" xmlns:cc="http://creativecommons.org/ns#" xmlns:dc="http://purl.org/dc/elements/1.1/" viewBox="0 0 59.056 56.484">
 <metadata>
  <rdf:RDF>
   <cc:Work rdf:about="">
    <dc:format>image/svg+xml</dc:format>
    <dc:type rdf:resource="http://purl.org/dc/dcmitype/StillImage"/>
    <dc:title/>
    <cc:license rdf:resource="https://www.gnu.org/licenses/gpl.html"/> 
    <dc:creator> 
     <cc:Agent> 
      <dc:title>Glen Reesor &lt;glen@glenreesor.ca&gt;</dc:title> 
     </cc:Agent> 
    </dc:creator>
   </cc:Work>
  </rdf:RDF>
 </metadata>
 <g transform="translate(-665.91309,-455.3994)">
  <g stroke="#000" transform="translate(-195.43163,-176.73204)">
   <path stroke-linejoin="round" d="m823.25,1283.4c0,7.9081-2.2556,14.319-5.0381,14.319s-5.0381-6.4108-5.0381-14.319c0-7.9081,2.2556-14.319,5.0381-14.319s5.0381,6.4108,5.0381,14.319z" fill-rule="nonzero" transform="matrix(-1.3045369,-0.47481256,0.34202015,-0.93969261,1515.7103,2268.3702)" stroke-linecap="round" stroke-miterlimit="4" stroke-dasharray="none" stroke-width="2" fill="#ffd100"/>
   <path d="m827.85,1279.5c0,3.2218-2.6118,5.8336-5.8336,5.8336s-5.8336-2.6118-5.8336-5.8336,2.6118-5.8336,5.8336-5.8336,5.8336,2.6118,5.8336,5.8336z" fill-rule="nonzero" transform="matrix(1.439394,0,0,1.439394,-287.99297,-1186.7798)" fill="#000"/>
   <path stroke-linejoin="round" d="m106.57,906.31c6.9107-0.92009,12.842,11.041,13.247,26.717,0.0642,2.4798-0.0152,4.9679-0.23611,7.4009" transform="matrix(0.44566004,0.16220699,-0.12455146,0.34220233,953.47302,306.07422)" stroke-dashoffset="5.60000009" stroke-linecap="round" stroke-miterlimit="4" stroke-dasharray="none" stroke-width="7.21877909" fill="none"/>
   <path stroke-linejoin="round" d="m616.6,785.73c0,18.159-6.3316,32.88-14.142,32.88-7.8105,0-14.142-14.721-14.142-32.88s6.3316-32.88,14.142-32.88c7.8105,0,14.142,14.721,14.142,32.88z" transform="matrix(0,0.38415182,0.38415182,0,604.92799,432.60124)" stroke-dashoffset="5.60000009" stroke-linecap="round" stroke-miterlimit="4" stroke-dasharray="none" stroke-width="5.20627499" fill="#FFF"/>
   <path stroke-linejoin="round" d="m616.6,785.73c0,18.159-6.3316,32.88-14.142,32.88-7.8105,0-14.142-14.721-14.142-32.88s6.3316-32.88,14.142-32.88c7.8105,0,14.142,14.721,14.142,32.88z" transform="matrix(0.27163635,-0.27163635,0.27163635,0.27163635,525.77942,626.5355)" stroke-dashoffset="5.60000009" stroke-linecap="round" stroke-miterlimit="4" stroke-dasharray="none" stroke-width="5.20627499" fill="#FFF"/>
   <path stroke-linejoin="round" d="m616.6,785.73c0,18.159-6.3316,32.88-14.142,32.88-7.8105,0-14.142-14.721-14.142-32.88s6.3316-32.88,14.142-32.88c7.8105,0,14.142,14.721,14.142,32.88z" transform="matrix(-0.24692803,0.29427736,-0.29427736,-0.24692803,1259.8548,670.9751)" stroke-dashoffset="5.60000009" stroke-linecap="round" stroke-miterlimit="4" stroke-dasharray="none" stroke-width="5.20627499" fill="#FFF"/>
   <path stroke-linejoin="round" d="m616.6,785.73c0,18.159-6.3316,32.88-14.142,32.88-7.8105,0-14.142-14.721-14.142-32.88s6.3316-32.88,14.142-32.88c7.8105,0,14.142,14.721,14.142,32.88z" transform="matrix(-0.03348104,-0.38269,-0.38269,0.03348104,1195.8007,869.24773)" stroke-dashoffset="5.60000009" stroke-linecap="round" stroke-miterlimit="4" stroke-dasharray="none" stroke-width="5.20627499" fill="#FFF"/>
   <path stroke-linejoin="round" d="m106.57,906.31c6.9107-0.92009,12.842,11.041,13.247,26.717,0.0642,2.4798-0.0152,4.9679-0.23611,7.4009" transform="matrix(-0.44566004,-0.16220699,-0.12455146,0.34220233,1075.0043,350.56319)" stroke-dashoffset="5.60000009" stroke-linecap="round" stroke-miterlimit="4" stroke-dasharray="none" stroke-width="7.21877909" fill="none"/>
   <path stroke-linejoin="round" d="m812.03,1276.8c0.80708-1.8888,4.4691-3.0869,8.1792-2.676,3.6811,0.4076,6.0322,2.2475,5.2723,4.126" transform="matrix(0.77831698,0.13723829,-0.15816799,0.89701523,449.19307,-575.40112)" stroke-linecap="round" stroke-miterlimit="4" stroke-dasharray="none" stroke-width="2" fill="none"/>
   <path stroke-linejoin="round" d="m812.03,1276.8c0.80708-1.8888,4.4691-3.0869,8.1792-2.676,3.6811,0.4076,6.0322,2.2475,5.2723,4.126" transform="matrix(0.97161822,0.14425791,-0.19745027,0.94289676,342.51512,-644.78765)" stroke-linecap="round" stroke-miterlimit="4" stroke-dasharray="none" stroke-width="2" fill="none"/>
  </g>
 </g>
</svg>
