<!-- Created with Inkscape (http://www.inkscape.org/) -->
<svg xmlns:rdf="http://www.w3.org/1999/02/22-rdf-syntax-ns#" xmlns="http://www.w3.org/2000/svg" version="1.1" xmlns:cc="http://creativecommons.org/ns#" xmlns:xlink="http://www.w3.org/1999/xlink" viewBox="0 0 47.646 47.537" xmlns:dc="http://purl.org/dc/elements/1.1/">
 <defs>
  <linearGradient id="linearGradient11045" y2="311.75" gradientUnits="userSpaceOnUse" y1="311.75" gradientTransform="matrix(0.60359471,0,0,0.60359471,64.926986,64.860945)" x2="229.53" x1="195.44">
   <stop stop-color="#F00" offset="0"/>
   <stop stop-color="#ffff25" offset="1"/>
  </linearGradient>
 </defs>
 <metadata>
  <rdf:RDF>
   <cc:Work rdf:about="">
    <dc:format>image/svg+xml</dc:format>
    <dc:type rdf:resource="http://purl.org/dc/dcmitype/StillImage"/>
    <dc:title/>
    <cc:license rdf:resource="https://www.gnu.org/licenses/gpl.html"/> 
    <dc:creator> 
     <cc:Agent> 
      <dc:title>Glen Reesor &lt;glen@glenreesor.ca&gt;</dc:title> 
     </cc:Agent> 
    </dc:creator>
   </cc:Work>
  </rdf:RDF>
 </metadata>
 <g transform="translate(-186.02107,-541.6241)">
  <g stroke-dasharray="none" stroke-miterlimit="4" transform="translate(21.25408,312.28035)">
   <path d="m160.52,958.45c-5.0188,0.68439-9.6422-2.8294-10.327-7.8482-0.037-0.27158-0.0619-0.54468-0.0744-0.81849" transform="matrix(2.162789,0,0,2.162789,-157.89409,-1815.0199)" stroke="#00009e" stroke-width="1.84946382" fill="none"/>
   <path d="m160.52,958.45c-5.0188,0.68439-9.6422-2.8294-10.327-7.8482-0.037-0.27158-0.0619-0.54468-0.0744-0.81849" transform="matrix(-2.162789,0,0,-2.162789,535.07455,2330.9895)" stroke="#00009e" stroke-width="1.84946382" fill="none"/>
   <path stroke-linejoin="miter" d="m190.25,230.33-4.6717,23.255,5.122-0.0856-6.6979,22.225,18.349-26.172-6.8104,0.2573,3.8274-19.479-9.1181,0z" stroke="#000" stroke-linecap="butt" stroke-width="2" fill="url(#linearGradient11045)"/>
  </g>
 </g>
</svg>
