<!-- Created with Inkscape (http://www.inkscape.org/) -->
<svg xmlns:rdf="http://www.w3.org/1999/02/22-rdf-syntax-ns#" xmlns="http://www.w3.org/2000/svg" version="1.1" xmlns:cc="http://creativecommons.org/ns#" xmlns:xlink="http://www.w3.org/1999/xlink" viewBox="0 0 45.732 49.516" xmlns:dc="http://purl.org/dc/elements/1.1/">
 <defs></defs>
 <metadata>
  <rdf:RDF>
   <cc:Work rdf:about="">
    <dc:format>image/svg+xml</dc:format>
    <dc:type rdf:resource="http://purl.org/dc/dcmitype/StillImage"/>
    <dc:title/>
    <cc:license rdf:resource="https://www.gnu.org/licenses/gpl.html"/> 
    <dc:creator> 
     <cc:Agent> 
      <dc:title>Glen Reesor &lt;glen@glenreesor.ca&gt;</dc:title> 
     </cc:Agent> 
    </dc:creator>
   </cc:Work>
  </rdf:RDF>
 </metadata>
 <g transform="translate(-430.56126,-696.55271)">
  <g transform="translate(-305.36322,1049.7105)">
   <path stroke-linejoin="round" d="m747.74-352.16c-3.4606,2.5127-6.9212,5.0253-10.382,7.538,2.3124,1.5092,3.6685,4.0684,5.4326,6.1385,2.7065,3.4167,5.3591,6.8736,8.0267,10.32-4.2841,5.8817-8.9199,11.511-13.907,16.809,3.7008,2.2335,7.4016,4.467,11.102,6.7004,3.883-4.1528,7.4923-8.5564,10.947-13.07,3.349,4.3491,6.8352,8.6014,10.596,12.602,3.6943-2.24,7.3886-4.48,11.083-6.7199-4.852-5.1397-9.3618-10.6-13.537-16.303,2.5196-3.3161,5.0989-6.5858,7.6597-9.8694,1.7541-2.0771,3.1249-4.5927,5.4101-6.1415-3.4476-2.5062-6.8952-5.0124-10.343-7.5185-3.1829,2.4964-5.111,6.1598-7.7133,9.1936-1.1537,0.99461-2.3184,3.8607-3.408,3.7198-2.9385-3.7503-5.8338-7.5355-8.7463-11.305-0.68271-0.75427-1.446-1.4372-2.2205-2.095zm32.431,8.0055zm-42.813-0.46747z" stroke-dashoffset="5.60000009" stroke="#000" stroke-linecap="butt" stroke-miterlimit="4" stroke-dasharray="none" stroke-width="2" fill="#F00"/>
  </g>
 </g>
</svg>
