<!-- Created with Inkscape (http://www.inkscape.org/) -->
<svg xmlns:rdf="http://www.w3.org/1999/02/22-rdf-syntax-ns#" xmlns="http://www.w3.org/2000/svg" version="1.1" xmlns:cc="http://creativecommons.org/ns#" xmlns:dc="http://purl.org/dc/elements/1.1/" viewBox="0 0 50.406 50.406">
 <metadata>
  <rdf:RDF>
   <cc:Work rdf:about="">
    <dc:format>image/svg+xml</dc:format>
    <dc:type rdf:resource="http://purl.org/dc/dcmitype/StillImage"/>
    <dc:title/>
    <cc:license rdf:resource="https://www.gnu.org/licenses/gpl.html"/> 
    <dc:creator> 
     <cc:Agent> 
      <dc:title>Glen Reesor &lt;glen@glenreesor.ca&gt;</dc:title> 
     </cc:Agent> 
    </dc:creator>
   </cc:Work>
  </rdf:RDF>
 </metadata>
 <g stroke-dasharray="none" stroke-miterlimit="4" transform="translate(-459.73623,-493.67653)">
  <g transform="translate(401.48175,112.94408)">
   <rect stroke-linejoin="round" stroke-dashoffset="5.60000009" ry="0" height="48.405" width="48.405" stroke="#000" stroke-linecap="round" y="547.96" x="101.58" stroke-width="2" fill="#FFF"/>
   <path stroke-linejoin="miter" d="m102.27,550.03,46.749,0" stroke="#7a7b79" stroke-linecap="butt" stroke-width="2.87698817" fill="none"/>
   <path stroke-linejoin="miter" d="m103.62,548.8,0,46.578" stroke="#7a7b79" stroke-linecap="butt" stroke-width="2.871701" fill="none"/>
  </g>
  <g transform="translate(437.70498,-53.042219)">
   <rect stroke-linejoin="round" stroke-dashoffset="5.60000009" ry="0" height="48.405" width="48.405" stroke="#000" stroke-linecap="round" y="547.73" x="23.025" stroke-width="2" fill="#FFF"/>
   <g transform="matrix(0.71607257,0,0,0.71607257,-426.30878,811.58806)" stroke-width="2.7930131" fill="#000">
    <path stroke-linejoin="round" d="m647.59-334.99c3.4623,3.295,6.1898,7.2647,9.2369,10.93,1.7394,2.3127,1.7499,2.5598,3.1341,5.0968,1.4548,0.88083,4.0627-8.2165,6.1487-13.449,2.3498-5.2617,4.7883-10.531,8.2545-15.169,1.9917-2.8305,4.5834-5.1977,7.0646-7.5639,2.3352-0.96525,4.6704-1.9305,7.0056-2.8958-3.3181,3.247-6.7756,6.4385-9.1284,10.498-2.969,4.3976-5.0394,9.3269-7.1704,14.166-1.6161,4.0379-3.2641,8.0598-4.8099,12.124-1.1696,2.503-4.2279,8.1009-6.744,9.4879-2.0912,1.1618-3.1577-0.1382-5.3629-2.1905-3.9611-4.8297-7.6256-9.5041-11.625-14.41-0.6027-1.2409-3.6067-2.1948-1.3306-3.0092,1.7757-1.2048,3.5516-2.4096,5.3271-3.6145z" stroke-dashoffset="5.60000009" stroke="#000" stroke-linecap="butt" stroke-miterlimit="4" stroke-dasharray="none" stroke-width="2.7930131" fill="#000"/>
   </g>
   <path stroke-linejoin="miter" d="m25.331,550.17,45.106,0" stroke="#7a7b79" stroke-linecap="butt" stroke-width="2.82598805" fill="none"/>
   <path stroke-linejoin="miter" d="m25.446,548.69,0,46.456" stroke="#7a7b79" stroke-linecap="butt" stroke-width="2.86795688" fill="none"/>
  </g>
 </g>
</svg>
