<!-- Created with Inkscape (http://www.inkscape.org/) -->
<svg xmlns:rdf="http://www.w3.org/1999/02/22-rdf-syntax-ns#" xmlns="http://www.w3.org/2000/svg" version="1.1" xmlns:cc="http://creativecommons.org/ns#" xmlns:xlink="http://www.w3.org/1999/xlink" viewBox="0 0 50.375 53.5" xmlns:dc="http://purl.org/dc/elements/1.1/">
 <defs>
  <linearGradient id="linearGradient5696" y2="1416.1" gradientUnits="userSpaceOnUse" x2="143.25" gradientTransform="translate(221.07072,-634.87544)" y1="1416.1" x1="92.875">
   <stop stop-color="#00F" offset="0"/>
   <stop stop-color="#0CF" stop-opacity="0.98245615" offset="1"/>
  </linearGradient>
  <linearGradient id="linearGradient5698" y2="1427.5" gradientUnits="userSpaceOnUse" x2="326.5" y1="1427.5" x1="310.5">
   <stop stop-color="#00F" offset="0"/>
   <stop stop-color="#0CF" offset="1"/>
  </linearGradient>
 </defs>
 <metadata>
  <rdf:RDF>
   <cc:Work rdf:about="">
    <dc:format>image/svg+xml</dc:format>
    <dc:type rdf:resource="http://purl.org/dc/dcmitype/StillImage"/>
    <dc:title/>
    <cc:license rdf:resource="https://www.gnu.org/licenses/gpl.html"/> 
    <dc:creator> 
     <cc:Agent> 
      <dc:title>Glen Reesor &lt;glen@glenreesor.ca&gt;</dc:title> 
     </cc:Agent> 
    </dc:creator>
   </cc:Work>
  </rdf:RDF>
 </metadata>
 <g transform="translate(-237.35656,-724.9087)">
  <g stroke-linejoin="round" fill-rule="nonzero" transform="translate(-76.580936,-29.590812)" stroke="#000" stroke-linecap="round" stroke-miterlimit="4" stroke-dasharray="none" stroke-width="2">
   <rect height="10.25" width="48.375" y="776.14" x="314.95" fill="url(#linearGradient5696)"/>
   <path d="m325.5,1427.5c0,3.866-3.134,7-7,7s-7-3.134-7-7,3.134-7,7-7,7,3.134,7,7z" transform="translate(20.633219,-627.50049)" fill="url(#linearGradient5698)"/>
   <path d="m325.5,1427.5c0,3.866-3.134,7-7,7s-7-3.134-7-7,3.134-7,7-7,7,3.134,7,7z" transform="translate(20.633219,-665.00049)" fill="url(#linearGradient5698)"/>
  </g>
 </g>
</svg>
