<!-- Created with Inkscape (http://www.inkscape.org/) -->
<svg xmlns:rdf="http://www.w3.org/1999/02/22-rdf-syntax-ns#" xmlns="http://www.w3.org/2000/svg" version="1.1" xmlns:cc="http://creativecommons.org/ns#" xmlns:xlink="http://www.w3.org/1999/xlink" viewBox="0 0 50.134 50.134" xmlns:dc="http://purl.org/dc/elements/1.1/">
 <defs>
  <linearGradient id="linearGradient8271" y2="1299.9" gradientUnits="userSpaceOnUse" y1="1299.9" gradientTransform="translate(21.133227,-627.50049)" x2="405.46" x1="359.46">
   <stop stop-color="#2d68ca" offset="0"/>
   <stop stop-color="#3dd8ff" offset="1"/>
  </linearGradient>
 </defs>
 <metadata>
  <rdf:RDF>
   <cc:Work rdf:about="">
    <dc:format>image/svg+xml</dc:format>
    <dc:type rdf:resource="http://purl.org/dc/dcmitype/StillImage"/>
    <dc:title/>
    <cc:license rdf:resource="https://www.gnu.org/licenses/gpl.html"/> 
    <dc:creator> 
     <cc:Agent> 
      <dc:title>Glen Reesor &lt;glen@glenreesor.ca&gt;</dc:title> 
     </cc:Agent> 
    </dc:creator>
   </cc:Work>
  </rdf:RDF>
 </metadata>
 <g transform="translate(-380.0117,-922.83849)">
  <g transform="translate(1.4488971,275.4524)">
   <path stroke-linejoin="bevel" d="m310.38,1299.1c0,3.935-3.19,7.125-7.125,7.125s-7.125-3.19-7.125-7.125,3.19-7.125,7.125-7.125,7.125,3.19,7.125,7.125z" transform="translate(100.38327,-626.62376)" stroke-dashoffset="5.60000009" stroke="#00008b" stroke-linecap="round" stroke-miterlimit="4" stroke-dasharray="none" stroke-width="2" fill="#FFF"/>
   <g stroke-linejoin="miter" stroke="#0e0e91" stroke-linecap="butt" stroke-miterlimit="4" stroke-dasharray="none" fill="none">
    <g transform="matrix(0.94313695,0,0,0.94313695,22.951817,38.237513)" stroke-width="2.12058282">
     <path d="m398.64,656.13,1.7236-9.1924,6.4524,0,2.2539,9.2366"/>
     <path d="m397.95,688.76,1.7236,9.1924,6.4524,0,2.2539-9.2366"/>
    </g>
    <g transform="matrix(0,0.94313695,-0.94313695,0,1037.845,292.47301)" stroke-width="2.12058282">
     <path d="m398.64,656.13,1.7236-9.1924,6.4524,0,2.2539,9.2366"/>
     <path d="m397.95,688.76,1.7236,9.1924,6.4524,0,2.2539-9.2366"/>
    </g>
    <g transform="matrix(0.66689853,-0.66689853,0.66689853,0.66689853,-314.27529,493.20951)" stroke-width="2.12058282">
     <path d="m398.64,656.13,1.7236-9.1924,6.4524,0,2.2539,9.2366"/>
     <path d="m397.95,688.76,1.7236,9.1924,6.4524,0,2.2539-9.2366"/>
    </g>
    <g transform="matrix(-0.66689853,-0.66689853,0.66689853,-0.66689853,224.21829,1390.5186)" stroke-width="2.12058282">
     <path d="m398.64,656.13,1.7236-9.1924,6.4524,0,2.2539,9.2366"/>
     <path d="m397.95,688.76,1.7236,9.1924,6.4524,0,2.2539-9.2366"/>
    </g>
    <path d="m395.26,657.94,4.2903-1.6718" stroke-width="2"/>
    <path d="m408.32,656.47,3.9036,2.3988" stroke-width="2"/>
    <path d="m418.31,664.92,1.478,4.202" stroke-width="2"/>
    <path d="m419.6,677.85-2.2456,3.3888" stroke-width="2"/>
    <path d="m411.37,687.26-3.9349,1.2432" stroke-width="2"/>
    <path d="m398.96,688.58-3.9036-1.3562" stroke-width="2"/>
    <path d="m388.94,680.98-1.3556-3.9859" stroke-width="2"/>
    <path d="m387.5,668.45,1.5178-4.3838" stroke-width="2"/>
   </g>
   <path d="m400.73,694.76c-0.069-0.3094-0.3574-1.8563-0.64081-3.4375-0.28341-1.5813-0.60867-3.1024-0.72279-3.3803-0.13847-0.3371-0.84115-0.7286-2.112-1.1766l-1.9045-0.6714-3.2892,2.2619-3.2892,2.2619-1.4962-1.4962-1.4962-1.4961,2.1183-3.4641,2.1183-3.4641-0.66262-1.9824c-0.36444-1.0903-0.8245-2.067-1.0224-2.1705-0.19785-0.1034-1.5972-0.4826-3.1097-0.8425s-3.1719-0.7657-3.6875-0.9017l-0.9375-0.2472v-2.0837-2.0838l3.4715-0.6566c1.9093-0.3611,3.6571-0.6566,3.8839-0.6566,0.42738,0,0.96384-1.0528,1.7508-3.4358l0.43286-1.3108-2.1445-3.1214c-1.1795-1.7168-2.1445-3.2117-2.1445-3.3221,0-0.1103,0.64688-0.8386,1.4375-1.6184l1.4375-1.4178,3.4407,2.0933,3.4407,2.0933,2.2171-0.865,2.2171-0.8651,0.65476-3.4616c0.36012-1.9039,0.65476-3.6432,0.65476-3.8651,0-0.3408,0.34189-0.4035,2.1985-0.4035h2.1985l0.96628,3.9518,0.96628,3.9519,1.8852,1.1106c1.0369,0.6109,1.9657,1.145,2.064,1.1869,0.0983,0.042,1.6572-0.8299,3.4642-1.9375,1.807-1.1075,3.367-2.0137,3.4666-2.0137s0.82664,0.6523,1.6156,1.4495l1.4344,1.4496-2.1298,3.1086c-1.1714,1.7097-2.1332,3.223-2.1374,3.3629-0.004,0.1399,0.30059,1.1734,0.6773,2.2967l0.68491,2.0422,3.6352,0.6637c1.9994,0.365,3.7758,0.7081,3.9477,0.7624,0.21754,0.069,0.3125,0.7402,0.3125,2.2098v2.1111l-3.9461,0.929-3.9461,0.9289-0.76082,1.1553c-1.7762,2.6971-1.8428,1.9693,0.54032,5.9035l2.1161,3.4934-1.4836,1.4836-1.4836,1.4836-3.2056-2.1695c-1.7631-1.1932-3.3805-2.1683-3.5944-2.1669-0.21384,0-1.164,0.2641-2.1116,0.5837l-1.7228,0.5812-0.70569,2.9723c-0.38813,1.6348-0.82038,3.3983-0.96056,3.9189l-0.25487,0.9465h-2.1106c-1.9849,0-2.1181-0.034-2.2361-0.5625zm5.9845-14.707c1.6894-0.6321,3.5357-2.3576,4.3933-4.1059,0.51287-1.0456,0.61316-1.618,0.61316-3.5,0-2.7174-0.56949-4.1086-2.4228-5.9185-1.6836-1.6442-3.4624-2.2768-6.0772-2.1614-2.345,0.1035-3.8582,0.7502-5.4437,2.3266-2.9862,2.9689-3.103,8.2556-0.2494,11.287,0.83902,0.8914,2.3375,1.8845,3.4431,2.2818,1.3088,0.4705,4.2083,0.3644,5.7435-0.21z" fill="url(#linearGradient8271)"/>
  </g>
 </g>
</svg>
