<!-- Created with Inkscape (http://www.inkscape.org/) -->
<svg xmlns:rdf="http://www.w3.org/1999/02/22-rdf-syntax-ns#" xmlns="http://www.w3.org/2000/svg" version="1.1" xmlns:cc="http://creativecommons.org/ns#" xmlns:xlink="http://www.w3.org/1999/xlink" viewBox="0 0 42.162 46.688" xmlns:dc="http://purl.org/dc/elements/1.1/">
 <defs></defs>
 <metadata>
  <rdf:RDF>
   <cc:Work rdf:about="">
    <dc:format>image/svg+xml</dc:format>
    <dc:type rdf:resource="http://purl.org/dc/dcmitype/StillImage"/>
    <dc:title/>
    <cc:license rdf:resource="https://www.gnu.org/licenses/gpl.html"/> 
    <dc:creator> 
     <cc:Agent> 
      <dc:title>Glen Reesor &lt;glen@glenreesor.ca&gt;</dc:title> 
     </cc:Agent> 
    </dc:creator>
   </cc:Work>
  </rdf:RDF>
 </metadata>
 <g transform="translate(-312.76604,-521.7951)">
  <g transform="translate(130.6466,168.26385)">
   <path stroke-linejoin="miter" d="m206.24,354.05c16.619,45.661,16.619,45.661,16.619,45.661" stroke="#000" stroke-linecap="butt" stroke-miterlimit="4" stroke-dasharray="none" stroke-width="3" fill="none"/>
   <path d="m183.43,372.85c-1.2609-2.617,1.3321-6.2046,5.7916-8.013,0.17119-0.0698,0.34404-0.13586,0.51828-0.19821m18.637-6.7842-18.678,6.7981" stroke="#000" stroke-miterlimit="4" stroke-dasharray="none" stroke-width="2" fill="none"/>
   <path d="m186.96,382.56c-1.2609-2.617,1.3321-6.2046,5.7916-8.013,0.1712-0.0698,0.34404-0.13587,0.51829-0.19822m18.637-6.7842-18.678,6.7981" stroke="#000" stroke-dasharray="none" stroke-miterlimit="4" stroke-width="2" fill="none"/>
   <path d="m189.19,388.68c-0.84325-1.4695,2.1087-4.0708,6.5934-5.8101,0.17222-0.0669,0.34541-0.1321,0.51965-0.19446m18.637-6.7838-18.678,6.7981" stroke="#000" stroke-dasharray="none" stroke-miterlimit="4" stroke-width="2" fill="none"/>
   <path stroke-linejoin="miter" d="m183.3,372.52c5.8643,16.112,5.8643,16.112,5.8643,16.112" stroke="#000" stroke-linecap="butt" stroke-miterlimit="4" stroke-dasharray="none" stroke-width="1.98305082" fill="none"/>
   <path d="m188.39,383.14c-0.584-2.0552-0.57233-2.5992,0.0788-3.6644,1.3484-2.2062,2.9042-3.0164,12.5-6.5091l9.1452-3.3286,1.0398,2.8568,1.0398,2.8568-10.093,3.8744c-7.8953,3.0308-10.412,4.1415-11.559,5.1011l-1.4662,1.2264-0.68578-2.4134z" fill="#00d800"/>
   <path d="m163.05,1007.2c-1.9933-5.2943-2.1269-6.1601-1.1852-7.6836,1.3455-2.1771,2.7369-2.8597,14.689-7.2064,4.9922-1.8155,6.7522-2.3428,6.9138-2.0714,0.57388,0.96427,2.5394,6.951,2.34,7.1275-0.12505,0.11073-3.9617,1.5477-8.5259,3.1932-9.4167,3.395-10.622,3.9618-12.578,5.9126-1.3674,1.3643-1.4077,1.382-1.654,0.728z" transform="translate(23.161198,-630.0675)" fill="#FFF"/>
  </g>
 </g>
</svg>
