<!-- Created with Inkscape (http://www.inkscape.org/) -->
<svg xmlns:rdf="http://www.w3.org/1999/02/22-rdf-syntax-ns#" xmlns="http://www.w3.org/2000/svg" version="1.1" xmlns:cc="http://creativecommons.org/ns#" xmlns:xlink="http://www.w3.org/1999/xlink" viewBox="0 0 42.162 46.688" xmlns:dc="http://purl.org/dc/elements/1.1/">
 <defs></defs>
 <metadata>
  <rdf:RDF>
   <cc:Work rdf:about="">
    <dc:format>image/svg+xml</dc:format>
    <dc:type rdf:resource="http://purl.org/dc/dcmitype/StillImage"/>
    <dc:title/>
    <cc:license rdf:resource="https://www.gnu.org/licenses/gpl.html"/> 
    <dc:creator> 
     <cc:Agent> 
      <dc:title>Glen Reesor &lt;glen@glenreesor.ca&gt;</dc:title> 
     </cc:Agent> 
    </dc:creator>
   </cc:Work>
  </rdf:RDF>
 </metadata>
 <g transform="translate(-252.30449,-590.56107)">
  <g transform="translate(146.18505,239.93607)">
   <path stroke-linejoin="miter" d="m130.24,351.14c16.619,45.661,16.619,45.661,16.619,45.661" stroke="#000" stroke-linecap="butt" stroke-miterlimit="4" stroke-dasharray="none" stroke-width="3" fill="none"/>
   <path d="m107.43,369.94c-1.2609-2.617,1.3321-6.2046,5.7916-8.013,0.17119-0.0698,0.34404-0.13586,0.51828-0.19821m18.637-6.7842-18.678,6.7981" stroke="#000" stroke-miterlimit="4" stroke-dasharray="none" stroke-width="2" fill="none"/>
   <path d="m110.97,379.65c-1.2609-2.617,1.3321-6.2046,5.7916-8.013,0.1712-0.0698,0.34404-0.13586,0.51829-0.19822m18.637-6.7842-18.678,6.7981" stroke="#000" stroke-dasharray="none" stroke-miterlimit="4" stroke-width="2" fill="none"/>
   <path d="m113.19,385.77c-0.84325-1.4695,2.1087-4.0708,6.5934-5.8102,0.17223-0.0669,0.34541-0.1321,0.51965-0.19446m18.637-6.7838-18.678,6.7981" stroke="#000" stroke-dasharray="none" stroke-miterlimit="4" stroke-width="2" fill="none"/>
   <path stroke-linejoin="miter" d="m107.3,369.61c5.8643,16.112,5.8643,16.112,5.8643,16.112" stroke="#000" stroke-linecap="butt" stroke-miterlimit="4" stroke-dasharray="none" stroke-width="1.98305082" fill="none"/>
   <path d="m112.39,380.23c-0.584-2.0552-0.57233-2.5992,0.0788-3.6644,1.3484-2.2062,2.9042-3.0164,12.5-6.5091l9.1452-3.3286,1.0398,2.8568,1.0398,2.8568-10.093,3.8744c-7.8953,3.0308-10.412,4.1415-11.559,5.1011l-1.4662,1.2264-0.68578-2.4134z" fill="#0061ff"/>
   <path d="m87.11,1004.4c-0.12794-0.2573-0.66437-1.6845-1.1921-3.1716-0.95491-2.6912-0.95703-2.7092-0.45037-3.8328,1.1326-2.5116,2.7181-3.4612,10.519-6.3002,3.3467-1.218,7.2822-2.6496,8.7456-3.1814l2.6608-0.96691,1.3431,3.6733c0.73873,2.0203,1.2448,3.7569,1.1245,3.859-0.12024,0.10212-3.953,1.5315-8.5172,3.1765-9.3034,3.353-10.605,3.9593-12.6,5.8705-1.1626,1.1134-1.44,1.2618-1.6331,0.8735z" transform="translate(23.161198,-630.0675)" fill="#FFF"/>
  </g>
 </g>
</svg>
