<!-- Created with Inkscape (http://www.inkscape.org/) -->
<svg xmlns:rdf="http://www.w3.org/1999/02/22-rdf-syntax-ns#" xmlns="http://www.w3.org/2000/svg" version="1.1" xmlns:cc="http://creativecommons.org/ns#" xmlns:xlink="http://www.w3.org/1999/xlink" viewBox="0 0 42.162 46.688" xmlns:dc="http://purl.org/dc/elements/1.1/">
 <defs></defs>
 <metadata>
  <rdf:RDF>
   <cc:Work rdf:about="">
    <dc:format>image/svg+xml</dc:format>
    <dc:type rdf:resource="http://purl.org/dc/dcmitype/StillImage"/>
    <dc:title/>
    <cc:license rdf:resource="https://www.gnu.org/licenses/gpl.html"/> 
    <dc:creator> 
     <cc:Agent> 
      <dc:title>Glen Reesor &lt;glen@glenreesor.ca&gt;</dc:title> 
     </cc:Agent> 
    </dc:creator>
   </cc:Work>
  </rdf:RDF>
 </metadata>
 <g transform="translate(-423.22866,-584.62794)">
  <g transform="translate(172.39047,231.65919)">
   <path stroke-linejoin="miter" d="m274.96,353.47c16.619,45.661,16.619,45.661,16.619,45.661" stroke="#000" stroke-linecap="butt" stroke-miterlimit="4" stroke-dasharray="none" stroke-width="3" fill="none"/>
   <path d="m252.15,372.27c-1.2609-2.617,1.3321-6.2046,5.7916-8.013,0.17119-0.0698,0.34404-0.13587,0.51828-0.19822m18.637-6.7842-18.678,6.7981" stroke="#000" stroke-miterlimit="4" stroke-dasharray="none" stroke-width="2" fill="none"/>
   <path d="m255.68,381.98c-1.2609-2.617,1.3321-6.2046,5.7916-8.013,0.1712-0.0698,0.34404-0.13586,0.51828-0.19822m18.637-6.7842-18.678,6.7981" stroke="#000" stroke-dasharray="none" stroke-miterlimit="4" stroke-width="2" fill="none"/>
   <path d="m257.91,388.1c-0.84325-1.4695,2.1087-4.0708,6.5934-5.8102,0.17222-0.0669,0.34541-0.1321,0.51965-0.19446m18.637-6.7838-18.678,6.7981" stroke="#000" stroke-dasharray="none" stroke-miterlimit="4" stroke-width="2" fill="none"/>
   <path stroke-linejoin="miter" d="m252.02,371.94c5.8643,16.112,5.8643,16.112,5.8643,16.112" stroke="#000" stroke-linecap="butt" stroke-miterlimit="4" stroke-dasharray="none" stroke-width="1.98305082" fill="none"/>
   <path d="m257.11,382.56c-0.584-2.0552-0.57234-2.5992,0.0788-3.6644,1.3484-2.2062,2.9042-3.0164,12.5-6.5091l9.1452-3.3286,1.0398,2.8568,1.0398,2.8568-10.093,3.8744c-7.8953,3.0308-10.412,4.1415-11.559,5.1011l-1.4662,1.2264-0.68578-2.4134z" fill="#ff6100"/>
   <path d="m231.86,1006.9c-0.0754-0.2129-0.53394-1.4771-1.0189-2.8092-1.0795-2.9655-1.1079-3.9994-0.14552-5.3104,1.5847-2.1587,2.8553-2.7952,12.774-6.3988,4.3399-1.5767,8.0637-2.9076,8.275-2.9575,0.46258-0.10925,3.1444,6.9895,2.7708,7.3342-0.13381,0.12346-4.1087,1.6267-8.833,3.3405-4.7243,1.7139-9.1349,3.431-9.8013,3.8158-0.66639,0.3849-1.813,1.3011-2.548,2.0361-0.88494,0.885-1.3827,1.2056-1.4736,0.9492z" transform="translate(23.161198,-630.0675)" fill="#FFF"/>
  </g>
 </g>
</svg>
