<!-- Created with Inkscape (http://www.inkscape.org/) -->
<svg xmlns:rdf="http://www.w3.org/1999/02/22-rdf-syntax-ns#" xmlns="http://www.w3.org/2000/svg" version="1.1" xmlns:cc="http://creativecommons.org/ns#" xmlns:xlink="http://www.w3.org/1999/xlink" viewBox="0 0 56.532 49.761" xmlns:dc="http://purl.org/dc/elements/1.1/">
 <defs></defs>
 <metadata>
  <rdf:RDF>
   <cc:Work rdf:about="">
    <dc:format>image/svg+xml</dc:format>
    <dc:type rdf:resource="http://purl.org/dc/dcmitype/StillImage"/>
    <dc:title/>
    <cc:license rdf:resource="https://www.gnu.org/licenses/gpl.html"/> 
    <dc:creator> 
     <cc:Agent> 
      <dc:title>Glen Reesor &lt;glen@glenreesor.ca&gt;</dc:title> 
     </cc:Agent> 
    </dc:creator>
   </cc:Work>
  </rdf:RDF>
 </metadata>
 <g transform="translate(-309.84431,-485.01235)">
  <g stroke-miterlimit="4" stroke-dasharray="none" transform="translate(281.31793,261.34946)">
   <path stroke-linejoin="round" d="m106.57,906.31c6.9107-0.92009,12.842,11.041,13.247,26.717,0.0642,2.4798-0.0152,4.9679-0.23611,7.4009" transform="matrix(0.44566004,0.16220699,-0.12455146,0.34220233,120.63949,-102.39433)" stroke-dashoffset="5.60000009" stroke="#000" stroke-linecap="round" stroke-width="7.21877909" fill="none"/>
   <g transform="matrix(0.61133064,0.22250616,-0.22250616,0.61133064,38.358106,19.931728)" stroke-width="3.07425332" fill="#F00">
    <path stroke-linejoin="round" d="m616.6,785.73c0,18.159-6.3316,32.88-14.142,32.88-7.8105,0-14.142-14.721-14.142-32.88s6.3316-32.88,14.142-32.88c7.8105,0,14.142,14.721,14.142,32.88z" transform="matrix(0.20195948,0.55487909,0.55487909,-0.20195948,-389.62687,137.44199)" stroke-dashoffset="5.60000009" stroke="#000" stroke-linecap="round" stroke-miterlimit="4" stroke-dasharray="none" stroke-width="5.20627499"/>
    <path stroke-linejoin="round" d="m616.6,785.73c0,18.159-6.3316,32.88-14.142,32.88-7.8105,0-14.142-14.721-14.142-32.88s6.3316-32.88,14.142-32.88c7.8105,0,14.142,14.721,14.142,32.88z" transform="matrix(0.37955965,-0.45234157,0.45234157,0.37955965,-418.9777,308.7764)" stroke-dashoffset="5.60000009" stroke="#000" stroke-linecap="round" stroke-miterlimit="4" stroke-dasharray="none" stroke-width="5.20627499"/>
    <path d="m616.6,785.73c0,18.159-6.3316,32.88-14.142,32.88-7.8105,0-14.142-14.721-14.142-32.88s6.3316-32.88,14.142-32.88c7.8105,0,14.142,14.721,14.142,32.88z" transform="matrix(0.17688743,0.44555645,0.48599421,-0.16216929,-322.00169,173.59403)"/>
   </g>
   <g transform="matrix(0.61133064,0.22250616,-0.22250616,0.61133064,36.183367,19.510138)" stroke-width="3.07425332" fill="#F00">
    <path stroke-linejoin="round" d="m616.6,785.73c0,18.159-6.3316,32.88-14.142,32.88-7.8105,0-14.142-14.721-14.142-32.88s6.3316-32.88,14.142-32.88c7.8105,0,14.142,14.721,14.142,32.88z" transform="matrix(-0.20195948,0.55487909,-0.55487909,-0.20195948,685.04953,136.90763)" stroke-dashoffset="5.60000009" stroke="#000" stroke-linecap="round" stroke-miterlimit="4" stroke-dasharray="none" stroke-width="5.20627499"/>
    <path stroke-linejoin="round" d="m616.6,785.73c0,18.159-6.3316,32.88-14.142,32.88-7.8105,0-14.142-14.721-14.142-32.88s6.3316-32.88,14.142-32.88c7.8105,0,14.142,14.721,14.142,32.88z" transform="matrix(-0.37955965,-0.45234157,-0.45234157,0.37955965,714.40036,308.24204)" stroke-dashoffset="5.60000009" stroke="#000" stroke-linecap="round" stroke-miterlimit="4" stroke-dasharray="none" stroke-width="5.20627499"/>
    <path d="m616.6,785.73c0,18.159-6.3316,32.88-14.142,32.88-7.8105,0-14.142-14.721-14.142-32.88s6.3316-32.88,14.142-32.88c7.8105,0,14.142,14.721,14.142,32.88z" transform="matrix(-0.17688743,0.44555645,-0.48599421,-0.16216929,617.42435,173.05967)"/>
   </g>
   <path stroke-linejoin="round" d="m106.57,906.31c6.9107-0.92009,12.842,11.041,13.247,26.717,0.0642,2.4798-0.0152,4.9679-0.23611,7.4009" transform="matrix(-0.44566004,-0.16220699,-0.12455146,0.34220233,232.5302,-61.669442)" stroke-dashoffset="5.60000009" stroke="#000" stroke-linecap="round" stroke-width="7.21877909" fill="none"/>
  </g>
 </g>
</svg>
