<!-- Created with Inkscape (http://www.inkscape.org/) -->
<svg xmlns:rdf="http://www.w3.org/1999/02/22-rdf-syntax-ns#" xmlns="http://www.w3.org/2000/svg" height="100%" width="100%" version="1.1" xmlns:cc="http://creativecommons.org/ns#" xmlns:xlink="http://www.w3.org/1999/xlink" viewBox="0 0 50.679512 50.00245" xmlns:dc="http://purl.org/dc/elements/1.1/">
 <defs>
  <linearGradient id="linearGradient7936-4" y2="460.46" gradientUnits="userSpaceOnUse" x2="64.423" gradientTransform="matrix(0.86670521,0,0,0.86670521,6.2826959,62.381072)" y1="460.46" x1="29.479">
   <stop stop-color="#FF0" offset="0"/>
   <stop stop-color="#ffffd1" offset="1"/>
  </linearGradient>
  <linearGradient id="linearGradient7944-3" y2="480.58" gradientUnits="userSpaceOnUse" x2="61.032" gradientTransform="matrix(0.86670521,0,0,0.86670521,6.2826959,62.381072)" y1="480.58" x1="32.869">
   <stop stop-color="#FF0" offset="0"/>
   <stop stop-color="#FFF" offset="1"/>
  </linearGradient>
  <linearGradient id="linearGradient10075-5" y2="460.46" gradientUnits="userSpaceOnUse" x2="64.423" gradientTransform="matrix(0.86670521,0,0,0.86670521,221.70343,60.163262)" y1="460.46" x1="29.479">
   <stop stop-color="#FF0" offset="0"/>
   <stop stop-color="#ffffd1" offset="1"/>
  </linearGradient>
  <linearGradient id="linearGradient10077-9" y2="480.58" gradientUnits="userSpaceOnUse" x2="61.032" gradientTransform="matrix(0.86670521,0,0,0.86670521,221.70343,60.163262)" y1="480.58" x1="32.869">
   <stop stop-color="#FF0" offset="0"/>
   <stop stop-color="#FFF" offset="1"/>
  </linearGradient>
  <linearGradient id="linearGradient11196" y2="460.46" gradientUnits="userSpaceOnUse" x2="64.423" gradientTransform="matrix(0.86352568,0,0,0.86352568,379.08873,174.78706)" y1="460.46" x1="29.479">
   <stop stop-color="#FF0" offset="0"/>
   <stop stop-color="#ffffd1" offset="1"/>
  </linearGradient>
  <linearGradient id="linearGradient11193" y2="480.58" gradientUnits="userSpaceOnUse" x2="61.032" gradientTransform="matrix(0.86352568,0,0,0.86352568,379.08873,174.78706)" y1="480.58" x1="32.869">
   <stop stop-color="#FF0" offset="0"/>
   <stop stop-color="#FFF" offset="1"/>
  </linearGradient>
 </defs>
 <metadata>
  <rdf:RDF>
   <cc:Work rdf:about="">
    <dc:format>image/svg+xml</dc:format>
    <dc:type rdf:resource="http://purl.org/dc/dcmitype/StillImage"/>
    <dc:title/>
    <cc:license rdf:resource="https://www.gnu.org/licenses/gpl.html"/> 
    <dc:creator> 
     <cc:Agent> 
      <dc:title>Glen Reesor &lt;glen@glenreesor.ca&gt;</dc:title> 
     </cc:Agent> 
    </dc:creator>
   </cc:Work>
  </rdf:RDF>
 </metadata>
 <g transform="matrix(0.49668923,0,0,0.49668923,-130.07222,-272.68378)">
  <g transform="matrix(0.99633148,0,0,0.99633148,298.25216,111.86805)" stroke-miterlimit="4" stroke-dasharray="none" stroke-width="2.00736403">
   <rect stroke-linejoin="round" stroke-dasharray="none" stroke-dashoffset="5.60000009" ry="8.0787" height="30.406" width="28.552" stroke="#000" stroke-linecap="butt" stroke-miterlimit="4" y="446.26" x="32.699" stroke-width="2.0074" fill="url(#linearGradient7936-4)"/>
   <rect stroke-linejoin="round" stroke-dasharray="none" stroke-dashoffset="5.60000009" ry="0.99338" height="3.7389" width="22.676" stroke="#000" stroke-linecap="butt" stroke-miterlimit="4" y="477.04" x="35.637" stroke-width="2.0074" fill="url(#linearGradient7944-3)"/>
   <path stroke-linejoin="round" d="m-32.516,1066.6c0,1.6541-1.3408,2.9949-2.9949,2.9949-1.654,0-2.9949-1.3408-2.9949-2.9949,0-1.654,1.3408-2.9948,2.9949-2.9948,1.654,0,2.9949,1.3408,2.9949,2.9948z" transform="matrix(0.58824071,0,0,0.58824071,64.127758,-169.2726)" stroke-dashoffset="5.60000009" stroke="#000" stroke-linecap="butt" stroke-miterlimit="4" stroke-dasharray="none" stroke-width="3.41248751" fill="#000"/>
   <path stroke-linejoin="round" d="m-32.516,1066.6c0,1.6541-1.3408,2.9949-2.9949,2.9949-1.654,0-2.9949-1.3408-2.9949-2.9949,0-1.654,1.3408-2.9948,2.9949-2.9948,1.654,0,2.9949,1.3408,2.9949,2.9948z" transform="matrix(0.58824071,0,0,0.58824071,72.656375,-168.90175)" stroke-dashoffset="5.60000009" stroke="#000" stroke-linecap="butt" stroke-miterlimit="4" stroke-dasharray="none" stroke-width="3.41248751" fill="#000"/>
   <path stroke-linejoin="round" d="m-79.15,1055.2c0,4.135-6.7042,7.4872-14.974,7.4872-7.8561,0-14.377-3.0357-14.936-6.9538" transform="matrix(0.35019107,0,0,0.23786624,79.547632,215.77381)" stroke-dashoffset="5.60000009" stroke="#000" stroke-linecap="butt" stroke-miterlimit="4" stroke-dasharray="none" stroke-width="6.95516109" fill="none"/>
   <path fill="#000" d="m59.7,459.27c-2.1455-0.72587-4.1122-4.6343-4.5137-8.9701-0.12747-1.3767-0.41419-2.503-0.63713-2.503-0.22295,0-0.61847-0.26522-0.87894-0.58938-0.41629-0.51804-1.8968,0.0199-12.237,4.449-6.4699,2.7711-11.816,4.9901-11.881,4.9311-0.38563-0.35093,1.1643-4.6076,2.4242-6.6577,3.9124-6.3662,12.192-10.077,19.746-8.8483,3.8727,0.62977,7.3989,2.2203,10.126,4.5673,3.1565,2.7165,4.3548,4.662,3.9924,6.4812-0.49294,2.4744-1.7687,5.1409-2.9243,6.1124-1.3998,1.1767-2.107,1.4026-3.216,1.0274z"/>
   <path stroke-linejoin="miter" d="m36.096,482.65,21.599,0,0.12342,0m0.000643-0.0181,6.4179,7.2819m-28.279-7.2563-6.4179,7.2818m0.000642,0.0873,34.558,0" stroke="#000" stroke-linecap="round" stroke-miterlimit="4" stroke-dasharray="none" stroke-width="2.00736403" fill="#0000fd"/>
   <path stroke-linejoin="round" d="m9.4682,1116.1c0-0.096,0.90785-1.1853,2.0174-2.4202l2.0174-2.2452h10.48,10.48l1.4947,1.7256c0.82209,0.9491,1.7428,2.0382,2.0461,2.4202l0.55138,0.6946h-14.543c-7.9988,0-14.543-0.079-14.543-0.175z" transform="translate(22.959442,-627.50049)" stroke-dashoffset="5.60000009" stroke="#00F" stroke-linecap="round" stroke-miterlimit="4" stroke-dasharray="none" stroke-width="2.00736403" fill="#0000fd"/>
  </g>
  <g stroke-dasharray="none" stroke-miterlimit="4" transform="translate(27.454975,111.37185)">
   <rect stroke-linejoin="round" stroke-dashoffset="5.60000009" ry="8.0787" height="30.406" width="28.552" stroke="#000" stroke-linecap="butt" y="444.04" x="248.12" stroke-width="2" fill="url(#linearGradient10075-5)"/>
   <path stroke-linejoin="round" d="m201.78,1109.6c-1.4739,6.3165-5.229,9.0475-8.3872,6.0998-2.3228-2.1679-3.7591-6.9304-3.6345-12.051" transform="matrix(0.86498925,0,0,1.8455568,114.70946,-1583.4433)" stroke-dashoffset="5.60000009" stroke="#cd0000" stroke-linecap="round" stroke-width="4.74878168" fill="none"/>
   <path stroke-linejoin="round" d="m201.78,1109.6c-1.4739,6.3165-5.229,9.0475-8.3872,6.0998-2.3228-2.1679-3.7591-6.9304-3.6345-12.051" transform="matrix(-0.86498925,0,0,1.8455568,411.01758,-1582.9896)" stroke-dashoffset="5.60000009" stroke="#cd0000" stroke-linecap="round" stroke-width="4.74878168" fill="none"/>
   <rect stroke-linejoin="round" stroke-dashoffset="5.60000009" ry="0.99338" height="3.7389" width="22.676" stroke="#000" stroke-linecap="butt" y="474.82" x="251.06" stroke-width="2" fill="url(#linearGradient10077-9)"/>
   <path stroke-linejoin="round" d="m-32.516,1066.6c0,1.6541-1.3408,2.9949-2.9949,2.9949-1.654,0-2.9949-1.3408-2.9949-2.9949,0-1.654,1.3408-2.9948,2.9949-2.9948,1.654,0,2.9949,1.3408,2.9949,2.9948z" transform="matrix(0.58824071,0,0,0.58824071,279.54849,-171.49041)" stroke-dashoffset="5.60000009" stroke="#000" stroke-linecap="butt" stroke-width="3.39996862" fill="#000"/>
   <path stroke-linejoin="round" d="m-32.516,1066.6c0,1.6541-1.3408,2.9949-2.9949,2.9949-1.654,0-2.9949-1.3408-2.9949-2.9949,0-1.654,1.3408-2.9948,2.9949-2.9948,1.654,0,2.9949,1.3408,2.9949,2.9948z" transform="matrix(0.58824071,0,0,0.58824071,288.07711,-171.11956)" stroke-dashoffset="5.60000009" stroke="#000" stroke-linecap="butt" stroke-width="3.39996862" fill="#000"/>
   <path stroke-linejoin="round" d="m-79.15,1055.2c0,4.135-6.7042,7.4872-14.974,7.4872-7.8561,0-14.377-3.0357-14.936-6.9538" transform="matrix(0.35019107,0,0,0.23786624,294.96836,213.556)" stroke-dashoffset="5.60000009" stroke="#000" stroke-linecap="butt" stroke-width="6.92964602" fill="none"/>
   <path d="m275.12,457.05c-2.1455-0.72587-4.1122-4.6343-4.5137-8.9701-0.12747-1.3767-0.41419-2.503-0.63713-2.503-0.22295,0-0.61847-0.26522-0.87893-0.58938-0.41629-0.51804-1.8968,0.0199-12.237,4.449-6.4699,2.7711-11.816,4.9901-11.881,4.9311-0.38562-0.35093,1.1644-4.6076,2.4242-6.6577,3.9124-6.3662,12.192-10.077,19.746-8.8483,3.8727,0.62977,7.3989,2.2203,10.126,4.5673,3.1565,2.7165,4.3548,4.662,3.9924,6.4812-0.49294,2.4744-1.7687,5.1409-2.9243,6.1124-1.3998,1.1767-2.107,1.4026-3.216,1.0274z" stroke="#cd0000" stroke-width="2" fill="#F00"/>
   <path stroke-linejoin="miter" d="m251.52,480.44,21.599,0,0.12342,0m0.00064-0.0181,6.418,7.2819m-28.279-7.2563-6.4179,7.2818m0.00064,0.0873,34.558,0" stroke="#000" stroke-linecap="round" stroke-width="2" fill="#0000fd"/>
   <path stroke-linejoin="round" d="m247.85,486.36c0-0.096,0.90786-1.1853,2.0174-2.4202l2.0174-2.2452h10.48,10.48l1.4947,1.7256c0.82209,0.9491,1.7428,2.0382,2.0461,2.4202l0.55138,0.6946h-14.543c-7.9988,0-14.543-0.079-14.543-0.175z" stroke-dashoffset="5.60000009" stroke="#ff0bd2" stroke-linecap="round" stroke-width="0.60505444" fill="#ff0bd2"/>
   <path stroke-linejoin="round" d="m201.78,1109.6c-1.4739,6.3165-5.229,9.0475-8.3872,6.0998-2.3228-2.1679-3.7591-6.9304-3.6345-12.051" transform="matrix(0.86498925,0,0,1.8455568,114.51549,-1583.5351)" stroke-dashoffset="5.60000009" stroke="#F00" stroke-linecap="round" stroke-width="1.58292723" fill="none"/>
   <path stroke-linejoin="round" d="m201.78,1109.6c-1.4739,6.3165-5.229,9.0475-8.3872,6.0998-2.3228-2.1679-3.7591-6.9304-3.6345-12.051" transform="matrix(-0.86498925,0,0,1.8455568,411.06028,-1583.6865)" stroke-dashoffset="5.60000009" stroke="#F00" stroke-linecap="round" stroke-width="1.58292723" fill="none"/>
  </g>
  <g transform="translate(-103.4643,47.7993)">
   <rect stroke-linejoin="round" stroke-dasharray="none" stroke-dashoffset="5.60000009" ry="8.0491" height="30.295" width="28.448" stroke="#000" stroke-linecap="butt" stroke-miterlimit="4" y="557.26" x="405.41" stroke-width="2" fill="url(#linearGradient11196)"/>
   <rect stroke-linejoin="round" stroke-dasharray="none" stroke-dashoffset="5.60000009" ry="0.98974" height="3.7251" width="22.592" stroke="#000" stroke-linecap="butt" stroke-miterlimit="4" y="587.92" x="408.34" stroke-width="2" fill="url(#linearGradient11193)"/>
   <path stroke-linejoin="round" d="m-32.516,1066.6c0,1.6541-1.3408,2.9949-2.9949,2.9949-1.654,0-2.9949-1.3408-2.9949-2.9949,0-1.654,1.3408-2.9948,2.9949-2.9948,1.654,0,2.9949,1.3408,2.9949,2.9948z" transform="matrix(0.58608274,0,0,0.58608274,436.72158,-56.01679)" stroke-dashoffset="5.60000009" stroke="#000" stroke-linecap="butt" stroke-miterlimit="4" stroke-dasharray="none" stroke-width="3.41248751" fill="#000"/>
   <path stroke-linejoin="round" d="m-32.516,1066.6c0,1.6541-1.3408,2.9949-2.9949,2.9949-1.654,0-2.9949-1.3408-2.9949-2.9949,0-1.654,1.3408-2.9948,2.9949-2.9948,1.654,0,2.9949,1.3408,2.9949,2.9948z" transform="matrix(0.58608274,0,0,0.58608274,445.21891,-55.647301)" stroke-dashoffset="5.60000009" stroke="#000" stroke-linecap="butt" stroke-miterlimit="4" stroke-dasharray="none" stroke-width="3.41248751" fill="#000"/>
   <path stroke-linejoin="round" d="m-79.15,1055.2c0,4.135-6.7042,7.4872-14.974,7.4872-7.8561,0-14.377-3.0357-14.936-6.9538" transform="matrix(0.34890639,0,0,0.23699362,452.08489,327.61707)" stroke-dashoffset="5.60000009" stroke="#000" stroke-linecap="butt" stroke-miterlimit="4" stroke-dasharray="none" stroke-width="6.95516109" fill="none"/>
   <path fill="#000" d="m408.39,570.22c2.1376-0.72321,4.0971-4.6173,4.4971-8.9372,0.127-1.3717,0.41267-2.4938,0.6348-2.4938s0.6162-0.26425,0.87571-0.58722c0.41476-0.51614,1.8898,0.0198,12.192,4.4327,6.4461,2.7609,11.773,4.9718,11.838,4.913,0.38421-0.34964-1.1601-4.5907-2.4154-6.6333-3.898-6.3429-12.148-10.04-19.673-8.8158-3.8585,0.62746-7.3718,2.2122-10.089,4.5506-3.1449,2.7065-4.3388,4.6449-3.9777,6.4575,0.49113,2.4653,1.7622,5.1221,2.9136,6.09,1.3947,1.1724,2.0993,1.3975,3.2042,1.0236z"/>
   <path stroke-linejoin="miter" d="m408.79,593.52,21.52,0,0.12297,0m0.00064-0.018,6.3944,7.2552m-28.176-7.2297-6.3944,7.2551m0.00064,0.087,34.431,0" stroke="#000" stroke-linecap="round" stroke-miterlimit="4" stroke-dasharray="none" stroke-width="2" fill="#0000fd"/>
   <path stroke-linejoin="round" d="m405.14,599.42c0-0.0956,0.90452-1.181,2.01-2.4113l2.01-2.237h10.441,10.441l1.4892,1.7193c0.81908,0.94562,1.7364,2.0307,2.0386,2.4113l0.54936,0.69205h-14.49c-7.9694,0-14.49-0.0787-14.49-0.17436z" stroke-dashoffset="5.60000009" stroke="#7e7c7c" stroke-linecap="round" stroke-miterlimit="4" stroke-dasharray="none" stroke-width="2" fill="#7c7c7c"/>
  </g>
 </g>
</svg>
