<!-- Created with Inkscape (http://www.inkscape.org/) -->
<svg xmlns:rdf="http://www.w3.org/1999/02/22-rdf-syntax-ns#" xmlns="http://www.w3.org/2000/svg" version="1.1" xmlns:cc="http://creativecommons.org/ns#" xmlns:dc="http://purl.org/dc/elements/1.1/" viewBox="0 0 70.125 50.033">
 <metadata>
  <rdf:RDF>
   <cc:Work rdf:about="">
    <dc:format>image/svg+xml</dc:format>
    <dc:type rdf:resource="http://purl.org/dc/dcmitype/StillImage"/>
    <dc:title/>
    <cc:license rdf:resource="https://www.gnu.org/licenses/gpl.html"/> 
    <dc:creator> 
     <cc:Agent> 
      <dc:title>Glen Reesor &lt;glen@glenreesor.ca&gt;</dc:title> 
     </cc:Agent> 
    </dc:creator>
   </cc:Work>
  </rdf:RDF>
 </metadata>
 <g transform="translate(-502.32444,-595.70876)">
  <g transform="translate(-15.738026,-51.414281)">
   <rect stroke-linejoin="round" stroke-dasharray="none" stroke-dashoffset="5.60000009" ry="0" height="48.016" width="68.136" stroke="#000" stroke-linecap="round" stroke-miterlimit="4" y="648.12" x="519.05" stroke-width="2" fill="#9ea09c"/>
   <rect height="38.455" width="56.211" y="652.91" x="525.01" fill="#FFF"/>
   <path d="m517,1289.5c0,2.865-2.3225,5.1875-5.1875,5.1875s-5.1875-2.3225-5.1875-5.1875,2.3225-5.1875,5.1875-5.1875,5.1875,2.3225,5.1875,5.1875z" transform="matrix(1.3534035,0,0,1.3534035,-156.73154,-1082.1259)" fill="#FB0"/>
   <path stroke-linejoin="round" d="m554.15,677.73,9.7393-16.644,8.4152,2.0795,3.0054-4.8473,6.0388-0.003" stroke="#000" stroke-linecap="butt" stroke-miterlimit="4" stroke-dasharray="none" stroke-width="2" fill="none"/>
   <path stroke-linejoin="miter" d="m524.99,677.65h56.164" stroke="#000" stroke-linecap="butt" stroke-miterlimit="4" stroke-dasharray="none" stroke-width="2" fill="none"/>
   <path d="m503.94,1312.5,0-6.25,28.062,0,28.062,0,0,6.25,0,6.25-28.062,0-28.062,0,0-6.25z" fill-rule="nonzero" transform="translate(21.133227,-627.50049)" fill="#00F"/>
   <path d="m535.2,1303.9c0-0.1383,7.7834-13.476,8.0222-13.747,0.11009-0.1248,1.8306,0.1864,3.9568,0.7158,2.1201,0.5279,4.0095,0.8699,4.329,0.7836,0.37139-0.1002,1.0395-0.9294,1.9366-2.4032l1.3696-2.2502h2.5679,2.5679v8.5,8.5h-12.375c-6.8062,0-12.375-0.044-12.375-0.099z" fill-rule="nonzero" transform="translate(21.133227,-627.50049)" fill="#007100"/>
   <path d="m503.97,1292.2,0-11.75,28,0,28,0,0,2.125,0,2.125-3.1071,0c-2.2927,0-3.1966,0.09-3.4485,0.3414-0.18777,0.1878-0.88725,1.2378-1.5544,2.3333l-1.213,1.9919-4.1106-1.0203-4.1106-1.0202-0.54041,0.6591c-0.29723,0.3625-2.5467,4.1029-4.9989,8.3119l-4.4585,7.6529h-14.229-14.229v-11.75zm14.029,4.6857c4.3351-2.2441,5.2525-7.8872,1.8374-11.302-3.4315-3.4316-9.0546-2.4991-11.325,1.878-0.75916,1.4634-0.82886,1.7765-0.74877,3.3636,0.20423,4.0474,3.0702,6.806,7.1229,6.856,1.2728,0.016,1.8142-0.1226,3.1136-0.7953z" fill-rule="nonzero" transform="translate(21.133227,-627.50049)" fill="#00c3ff"/>
  </g>
 </g>
</svg>
