<!-- Created with Inkscape (http://www.inkscape.org/) -->
<svg xmlns:rdf="http://www.w3.org/1999/02/22-rdf-syntax-ns#" xmlns="http://www.w3.org/2000/svg" version="1.1" xmlns:cc="http://creativecommons.org/ns#" xmlns:xlink="http://www.w3.org/1999/xlink" viewBox="0 0 48.28 50.163" xmlns:dc="http://purl.org/dc/elements/1.1/">
 <defs>
  <radialGradient id="radialGradient11101" xlink:href="#linearGradient10524" gradientUnits="userSpaceOnUse" cy="-173.17" cx="-371.99" gradientTransform="matrix(1,0,0,0.3728675,0,-108.60354)" r="24.22"/>
  <linearGradient id="linearGradient10524">
   <stop stop-color="#000" offset="0"/>
   <stop stop-color="#635adc" offset="1"/>
  </linearGradient>
  <radialGradient id="radialGradient11103" xlink:href="#linearGradient10524" gradientUnits="userSpaceOnUse" cy="-173.17" cx="-371.99" gradientTransform="matrix(1,0,0,0.35367246,0,-111.92763)" r="23.5"/>
  <radialGradient id="radialGradient11172" gradientUnits="userSpaceOnUse" xlink:href="#linearGradient10524" cx="-371.99" cy="-173.17" r="23.07" gradientTransform="matrix(1,0,0,0.34161567,0,-114.01557)"/>
 </defs>
 <metadata>
  <rdf:RDF>
   <cc:Work rdf:about="">
    <dc:format>image/svg+xml</dc:format>
    <dc:type rdf:resource="http://purl.org/dc/dcmitype/StillImage"/>
    <dc:title/>
    <cc:license rdf:resource="https://www.gnu.org/licenses/gpl.html"/> 
    <dc:creator> 
     <cc:Agent> 
      <dc:title>Glen Reesor &lt;glen@glenreesor.ca&gt;</dc:title> 
     </cc:Agent> 
    </dc:creator>
   </cc:Work>
  </rdf:RDF>
 </metadata>
 <g transform="translate(-181.62588,-769.47212)">
  <g transform="translate(-434.65715,127.76006)">
   <path d="m-346.43-154.2c0,13.93-11.293,25.223-25.223,25.223s-25.223-11.293-25.223-25.223,11.293-25.223,25.223-25.223,25.223,11.293,25.223,25.223z" transform="matrix(0.57577894,0,0,0.57577894,854.37241,765.00784)" stroke="#000" stroke-dasharray="none" stroke-miterlimit="4" stroke-width="3.47355533" fill="none"/>
   <path stroke-linejoin="miter" d="m640.58,689.94,2.7426-4.6037-4.7995-3.82-1.6651-2.6446,2.6446-3.3303,2.9385-1.5672,4.0159,2.4487,0,1.6651,2.9385,0.29382,0,4.5056-2.7426,3.918z" stroke="#000" stroke-linecap="butt" stroke-miterlimit="4" stroke-dasharray="none" stroke-width="1.56657016" fill="none"/>
   <path stroke-linejoin="miter" d="m639.11,676.13-5.5831-2.7426-0.78359-2.8405-0.88155-2.7426,2.7426-3.4282,4.0159-1.861,2.4487,0.39179-1.861,2.6446,2.4487,0.88149,0.19589,1.6651,0.97949-1.4692-0.0979-2.8405,2.6446,2.2528-4.5056,4.1139,0.97948,2.2528-1.2733,0.39179-0.68565-2.5467-3.1344,0.9795,0,2.0569,0.97949,1.1754,1.3713-1.3712,0.58771,0.68562-0.97949,0.68563z" stroke="#000" stroke-linecap="butt" stroke-miterlimit="4" stroke-dasharray="none" stroke-width="1.74045944" fill="none"/>
   <path d="m460.86,1283c0,0.6834-1.108,1.2375-2.4749,1.2375-1.3668,0-2.4749-0.5541-2.4749-1.2375s1.108-1.2374,2.4749-1.2374c1.3668,0,2.4749,0.554,2.4749,1.2374z" transform="matrix(0.55408347,0,0,0.55408347,384.14843,-43.292934)" fill="#00F"/>
   <path d="m636.14,674.3-2.3508-1.1525-0.28393-1.0717c-0.15617-0.58938-0.49776-1.746-0.7591-2.5702s-0.47518-1.5411-0.47518-1.5931c0-0.0521,0.57522-0.8134,1.2782-1.692l1.2782-1.5974,1.9308-0.88598,1.9308-0.88604,0.90006,0.14766,0.90005,0.14767-0.45742,0.64755c-0.25158,0.35612-0.64613,0.90976-0.87678,1.2304-0.23065,0.32054-0.41936,0.61309-0.41936,0.6501,0,0.0372,0.58857,0.27411,1.3079,0.52688l1.308,0.45962,0.14222,1.1751,0.14222,1.1752-0.58739,0.51868-0.58737,0.51862,0.45954,1.0574c0.25274,0.58152,0.44841,1.0684,0.43484,1.082-0.0136,0.0133-0.1416,0.0543-0.2845,0.0899-0.28507,0.0715-0.26239,0.12207-0.72568-1.6165-0.0933-0.35013-0.20303-0.67437-0.24382-0.72047-0.0408-0.046-0.89374,0.17077-1.8954,0.48194l-1.8213,0.56577v1.1857,1.1858l0.61218,0.75133c0.33671,0.41318,0.65385,0.75367,0.70477,0.7565,0.0509,0.005,0.2131-0.11021,0.36038-0.25134l0.2678-0.25654,0.1097,0.42797c0.0603,0.23538,0.1282,0.48306,0.15079,0.55038,0.0226,0.0674,0.009,0.12057-0.0293,0.11824-0.0387,0-1.1282-0.52284-2.4212-1.1567zm3.0559-6.2464c0.18784-0.14025,0.27434-0.2924,0.27434-0.48261,0-0.42061-0.47905-0.66136-1.3071-0.65687-0.76999,0.005-1.1224,0.12383-1.3394,0.45513-0.20071,0.30629-0.0853,0.55407,0.36496,0.78324,0.46684,0.23765,1.6334,0.18014,2.0072-0.0989z" fill="#0F0"/>
   <path d="m641.97,668.55c0-0.0288,0.26977-0.45396,0.5995-0.94433l0.59949-0.89158-0.0421-1.1001-0.0421-1.1001,0.86416,0.74275c0.47527,0.40846,0.85255,0.774,0.83838,0.81229-0.0329,0.0888-2.7051,2.5337-2.7693,2.5337-0.0264,0-0.048-0.0238-0.048-0.0527z" fill="#0F0"/>
   <path d="m641.6,688.9c0.0179-0.0454,0.51177-0.88281,1.0974-1.8603l1.0647-1.7773-0.23214-0.18938c-0.12767-0.10418-1.2479-0.99703-2.4894-1.9842l-2.2572-1.7948-0.75646-1.2007-0.75647-1.2008,0.94489-1.1772c0.75327-0.9384,0.98251-1.1652,1.1303-1.1183,0.15509,0.0494,0.18193,0.0133,0.16412-0.22063-0.0117-0.15365,0.0101-0.33024,0.0486-0.39235,0.0667-0.10804,2.7406-1.5955,2.868-1.5955,0.0338,0,0.87175,0.49585,1.862,1.1019l1.8006,1.1019,0.00028,0.90605c0.00023,0.72911,0.0282,0.90603,0.14338,0.90603,0.20925,0,2.1049,0.19293,2.477,0.2521l0.31834,0.0505v2.0586,2.0587l-1.2978,1.8599-1.2978,1.86-2.364,1.2193c-1.3002,0.6706-2.3948,1.2193-2.4324,1.2193s-0.0537-0.0372-0.0357-0.083z" fill="#0F0"/>
   <path d="m639.08,690.1c-6.4416-0.6219-11.678-5.6893-12.507-12.104-0.55424-4.2865,0.90901-8.5295,4.0054-11.614,1.4306-1.4253,3.0419-2.4758,4.8878-3.1867,0.67807-0.26115,1.901-0.60529,2.0363-0.57299,0.0506,0.0122-0.62245,0.34918-1.4955,0.74912l-1.5874,0.72723-1.4557,1.8164-1.4557,1.8163,0.45171,1.4043c0.34817,1.0825,1.2902,4.3271,1.2902,4.4439,0,0.0111,1.1948,0.60817,2.6552,1.3268l2.6552,1.3066-1.0275,1.2952c-0.56515,0.71238-1.027,1.3216-1.0264,1.3538,0.00055,0.0321,0.40002,0.69144,0.88758,1.4649l0.88648,1.4064,2.3034,1.8339c1.2669,1.0086,2.2934,1.8603,2.2811,1.8925-0.0122,0.0321-0.64565,1.1062-1.4075,2.3864-1.3422,2.2556-1.3917,2.3275-1.593,2.319-0.11428-0.005-0.46723-0.0339-0.78434-0.0644z" fill="#00F"/>
   <path d="m640.87,690.16c0.0191-0.0183,1.3773-0.72413,3.0183-1.569l2.9836-1.5361,1.4317-2.045,1.4317-2.045v-2.4196c0-1.3308-0.008-2.4226-0.0173-2.4263-0.01-0.005-0.67183-0.0738-1.4718-0.15581l-1.4545-0.14922-0.0213-0.79648-0.0213-0.79651-2.1447-1.3038-2.1447-1.3038-1.58,0.83628c-0.86897,0.45994-1.5972,0.83622-1.6182,0.83622-0.0211,0-0.0591-0.11126-0.0847-0.24728-0.0255-0.13604-0.0622-0.28857-0.0815-0.33899-0.0217-0.0566,0.16556-0.23045,0.48888-0.45397,0.28823-0.19924,0.52406-0.39312,0.52406-0.43091,0-0.0377-0.19309-0.291-0.42908-0.56272-0.23599-0.27178-0.45465-0.52422-0.48591-0.56101-0.0337-0.0399-0.33775,0.21298-0.74612,0.61985-0.3791,0.37766-0.69979,0.67265-0.71265,0.65559-0.0129-0.0171-0.17071-0.20706-0.35075-0.42211l-0.32734-0.39095,0.0195-0.84609,0.0195-0.84609,0.96965-0.30451c0.53331-0.16745,1.1142-0.34831,1.2909-0.40182l0.32125-0.0974,0.32745,1.2234c0.1801,0.67283,0.33908,1.2432,0.3533,1.2675,0.0218,0.0377,1.8108-0.47158,1.8901-0.53774,0.0151-0.0128-0.19703-0.54051-0.47125-1.1732-0.27422-0.63276-0.48912-1.1746-0.47753-1.2042,0.0116-0.0294,0.97165-0.91884,2.1335-1.9762,1.1618-1.0573,2.1835-1.9903,2.2702-2.0734l0.15781-0.15105-1.5398-1.3125c-1.8055-1.5388-1.8559-1.5798-1.8955-1.5403-0.0167,0.0166-0.00079,0.77195,0.0345,1.6784l0.0648,1.6481-0.23149,0.34375-0.2315,0.34375-0.0591-0.49796-0.0592-0.49789-1.0908-0.38975c-0.59996-0.21436-1.0908-0.41239-1.0908-0.4401,0-0.0278,0.40982-0.63121,0.9107-1.3412,0.62352-0.88382,0.88442-1.3071,0.82738-1.3424-0.0459-0.0283-0.47902-0.10993-0.96265-0.18135-0.80123-0.11836-0.85164-0.13399-0.56764-0.17637,0.50385-0.0753,2.2182,0.0594,3.1448,0.24707,1.1433,0.2315,2.1832,0.5789,3.1925,1.0666,1.5653,0.75626,2.6883,1.5497,3.8818,2.7426,4.9876,4.9852,5.5119,12.616,1.2565,18.288-0.52963,0.7059-1.9265,2.1003-2.6449,2.6403-2.0256,1.5226-4.6042,2.5501-6.926,2.7597-0.26664,0.0238-0.60948,0.0614-0.76186,0.0829-0.15237,0.0217-0.26146,0.0244-0.24241,0.006z" fill="#00F"/>
   <path d="m-393.43-166.93c7.0299-12.026,22.478-16.077,34.505-9.047,3.3683,1.9689,6.2339,4.6923,8.3715,7.956" transform="matrix(0.61260547,0,0,0.47475169,868.26597,740.51604)" stroke="url(#radialGradient11101)" stroke-linecap="round" stroke-miterlimit="4" stroke-dasharray="none" stroke-width="5.56285286" fill="none"/>
   <path d="m-393.43-166.93c7.0299-12.026,22.478-16.077,34.505-9.047,3.3683,1.9689,6.2339,4.6923,8.3715,7.956" transform="matrix(0.82628571,0,0,0.6403478,947.75279,764.09414)" stroke="url(#radialGradient11103)" stroke-linecap="round" stroke-miterlimit="4" stroke-dasharray="none" stroke-width="4.12428045" fill="none"/>
   <path d="m-393.43-166.93c7.0299-12.026,22.478-16.077,34.505-9.047,3.3683,1.9689,6.2339,4.6923,8.3715,7.956" transform="matrix(1.0442026,0,0,0.80922719,1028.8156,788.22845)" stroke="url(#radialGradient11172)" stroke-linecap="round" stroke-miterlimit="4" stroke-dasharray="none" stroke-width="3.26357532" fill="none"/>
  </g>
 </g>
</svg>
