<!-- Created with Inkscape (http://www.inkscape.org/) -->
<svg xmlns:rdf="http://www.w3.org/1999/02/22-rdf-syntax-ns#" xmlns="http://www.w3.org/2000/svg" version="1.1" xmlns:cc="http://creativecommons.org/ns#" xmlns:xlink="http://www.w3.org/1999/xlink" viewBox="0 0 42.903 47.97" xmlns:dc="http://purl.org/dc/elements/1.1/">
 <defs></defs>
 <metadata>
  <rdf:RDF>
   <cc:Work rdf:about="">
    <dc:format>image/svg+xml</dc:format>
    <dc:type rdf:resource="http://purl.org/dc/dcmitype/StillImage"/>
    <dc:title/>
    <cc:license rdf:resource="https://www.gnu.org/licenses/gpl.html"/> 
    <dc:creator> 
     <cc:Agent> 
      <dc:title>Glen Reesor &lt;glen@glenreesor.ca&gt;</dc:title> 
     </cc:Agent> 
    </dc:creator>
   </cc:Work>
  </rdf:RDF>
 </metadata>
 <g transform="translate(-299.41661,-475.93096)">
  <g stroke-linejoin="miter" transform="translate(-463.27746,483.64589)" stroke-dashoffset="5.60000009" stroke-linecap="round" stroke-miterlimit="4" stroke-dasharray="none">
   <path d="m358.58,632.07c-12.968,18.891-40.273,24.618-60.987,12.791-5.3286-3.0424-9.8853-7.0855-13.366-11.86" transform="matrix(-0.31744854,0.37832043,0.21551056,0.18083484,754.45853,-214.98616)" stroke="#000" stroke-width="23.8488884" fill="none"/>
   <path d="m335.59,641.1,29.627,21.525-11.317,34.829-36.621,0-11.317-34.829z" transform="matrix(-0.15633615,0.18631416,-0.18631416,-0.15633615,975.83954,43.409605)" stroke="#000" stroke-width="8.22314739" fill="#000"/>
   <path d="m335.59,641.1,29.627,21.525-11.317,34.829-36.621,0-11.317-34.829z" transform="matrix(-0.11269731,0.13430742,-0.13430742,-0.11269731,926.12946,31.296735)" stroke="#00F" stroke-width="11.40732861" fill="#00F"/>
   <path d="m335.59,641.1,29.627,21.525-11.317,34.829-36.621,0-11.317-34.829z" transform="matrix(-0.15633615,0.18631416,-0.18631416,-0.15633615,949.19756,74.655195)" stroke="#000" stroke-width="8.22314739" fill="#000"/>
   <path d="m335.59,641.1,29.627,21.525-11.317,34.829-36.621,0-11.317-34.829z" transform="matrix(-0.11269731,0.13430742,-0.13430742,-0.11269731,899.75831,62.542315)" stroke="#00F" stroke-width="11.40732861" fill="#00F"/>
   <path d="m358.58,632.07c-12.968,18.891-40.273,24.618-60.987,12.791-5.3286-3.0424-9.8853-7.0855-13.366-11.86" transform="matrix(-0.34631278,0.41271947,0.25154451,0.21107091,740.29045,-245.92759)" stroke="#00F" stroke-width="11.74153519" fill="none"/>
  </g>
 </g>
</svg>
