<!-- Created with Inkscape (http://www.inkscape.org/) -->
<svg xmlns:rdf="http://www.w3.org/1999/02/22-rdf-syntax-ns#" xmlns="http://www.w3.org/2000/svg" version="1.1" xmlns:cc="http://creativecommons.org/ns#" xmlns:xlink="http://www.w3.org/1999/xlink" viewBox="0 0 46.269 48.104" xmlns:dc="http://purl.org/dc/elements/1.1/">
 <defs></defs>
 <metadata>
  <rdf:RDF>
   <cc:Work rdf:about="">
    <dc:format>image/svg+xml</dc:format>
    <dc:type rdf:resource="http://purl.org/dc/dcmitype/StillImage"/>
    <dc:title/>
    <cc:license rdf:resource="https://www.gnu.org/licenses/gpl.html"/> 
    <dc:creator> 
     <cc:Agent> 
      <dc:title>Glen Reesor &lt;glen@glenreesor.ca&gt;</dc:title> 
     </cc:Agent> 
    </dc:creator>
   </cc:Work>
  </rdf:RDF>
 </metadata>
 <g transform="translate(-205.22168,-573.4504)">
  <g stroke-linejoin="miter" transform="translate(176.25989,454.30804)" stroke="#000" stroke-linecap="round" stroke-dasharray="none" stroke-miterlimit="4">
   <path d="m46.988,130.95v28.177" stroke-width="3" fill="none"/>
   <path d="m73.52,120.87v28.177" stroke-width="3" fill="none"/>
   <path d="m46.863,130.78c26.6-10.134,26.6-10.134,26.6-10.134" stroke-width="3" fill="none"/>
   <path d="m429.76,688.18c0,6.4518-5.2302,11.682-11.682,11.682s-11.682-5.2302-11.682-11.682,5.2302-11.682,11.682-11.682,11.682,5.2302,11.682,11.682z" transform="matrix(0.74303036,0,0,0.52365345,-271.80297,-200.0804)" stroke-dashoffset="5.60000009" stroke-width="3.20630431" fill="#FF0"/>
   <path d="m429.76,688.18c0,6.4518-5.2302,11.682-11.682,11.682s-11.682-5.2302-11.682-11.682,5.2302-11.682,11.682-11.682,11.682,5.2302,11.682,11.682z" transform="matrix(0.74303036,0,0,0.52365345,-245.27098,-210.29957)" stroke-dashoffset="5.60000009" stroke-width="3.20630431" fill="#FF0"/>
  </g>
 </g>
</svg>
