<!-- Created with Inkscape (http://www.inkscape.org/) -->
<svg xmlns:rdf="http://www.w3.org/1999/02/22-rdf-syntax-ns#" xmlns="http://www.w3.org/2000/svg" version="1.1" xmlns:cc="http://creativecommons.org/ns#" xmlns:xlink="http://www.w3.org/1999/xlink" viewBox="0 0 49.164 49.164" xmlns:dc="http://purl.org/dc/elements/1.1/">
 <defs></defs>
 <metadata>
  <rdf:RDF>
   <cc:Work rdf:about="">
    <dc:format>image/svg+xml</dc:format>
    <dc:type rdf:resource="http://purl.org/dc/dcmitype/StillImage"/>
    <dc:title/>
    <cc:license rdf:resource="https://www.gnu.org/licenses/gpl.html"/> 
    <dc:creator> 
     <cc:Agent> 
      <dc:title>Glen Reesor &lt;glen@glenreesor.ca&gt;</dc:title> 
     </cc:Agent> 
    </dc:creator>
   </cc:Work>
  </rdf:RDF>
 </metadata>
 <g transform="translate(-146.00882,-589.10253)">
  <g stroke-linejoin="round" transform="translate(112.02965,711.00389)" stroke-dashoffset="5.60000009" stroke="#000" stroke-linecap="round" stroke-dasharray="none" stroke-miterlimit="4">
   <path d="M105,642.5c0,18.5-14.998,33.5-33.5,33.5s-33.5-15-33.5-33.5,14.998-33.5,33.5-33.5,33.5,14.998,33.5,33.5z" transform="matrix(0.70422535,0,0,0.70422535,8.2089278,-549.78428)" stroke-width="2.83999991" fill="#FF0"/>
   <path d="m103.07,653.72c-6.1944,17.434-25.349,26.545-42.783,20.351-9.3767-3.3316-16.787-10.659-20.223-19.998" transform="matrix(0.4592813,0,0,0.38369582,25.494801,-341.85582)" stroke-width="7.14641666" fill="none"/>
   <path d="M105,642.5c0,18.5-14.998,33.5-33.5,33.5s-33.5-15-33.5-33.5,14.998-33.5,33.5-33.5,33.5,14.998,33.5,33.5z" transform="matrix(0.14878001,0,0,0.14878001,37.007772,-199.26999)" stroke-width="13.44266605" fill="#000"/>
   <path d="M105,642.5c0,18.5-14.998,33.5-33.5,33.5s-33.5-15-33.5-33.5,14.998-33.5,33.5-33.5,33.5,14.998,33.5,33.5z" transform="matrix(0.14878001,0,0,0.14878001,58.383505,-199.26999)" stroke-width="13.44266605" fill="#000"/>
  </g>
 </g>
</svg>
