<!-- Created with Inkscape (http://www.inkscape.org/) -->
<svg xmlns:rdf="http://www.w3.org/1999/02/22-rdf-syntax-ns#" xmlns="http://www.w3.org/2000/svg" version="1.1" xmlns:cc="http://creativecommons.org/ns#" xmlns:xlink="http://www.w3.org/1999/xlink" viewBox="0 0 33.127 46.969" xmlns:dc="http://purl.org/dc/elements/1.1/">
 <defs>
  <radialGradient id="radialGradient14944" gradientUnits="userSpaceOnUse" cy="-64.747" cx="595.96" gradientTransform="matrix(1,0,0,3.375,0,153.77302)" r="2.0589">
   <stop stop-color="#F00" offset="0"/>
   <stop stop-color="#F90" offset="1"/>
  </radialGradient>
  <filter id="filter14839" color-interpolation-filters="sRGB">
   <feGaussianBlur stdDeviation="0.044266982"/>
  </filter>
 </defs>
 <metadata>
  <rdf:RDF>
   <cc:Work rdf:about="">
    <dc:format>image/svg+xml</dc:format>
    <dc:type rdf:resource="http://purl.org/dc/dcmitype/StillImage"/>
    <dc:title/>
    <cc:license rdf:resource="https://www.gnu.org/licenses/gpl.html"/> 
    <dc:creator> 
     <cc:Agent> 
      <dc:title>Glen Reesor &lt;glen@glenreesor.ca&gt;</dc:title> 
     </cc:Agent> 
    </dc:creator>
   </cc:Work>
  </rdf:RDF>
 </metadata>
 <g transform="translate(-480.1367,-551.86979)">
  <g transform="translate(-139.97469,315.20686)">
   <path d="m598.02-64.747c0,3.8378-0.92181,6.9489-2.0589,6.9489s-2.0589-3.1111-2.0589-6.9489,0.92182-6.9489,2.0589-6.9489,2.0589,3.1111,2.0589,6.9489z" transform="matrix(0.76733058,0.44301853,-0.44301853,0.76733058,138.80626,57.73218)" fill="url(#radialGradient14944)"/>
   <path d="m598.02-64.747c0,3.8378-0.92181,6.9489-2.0589,6.9489s-2.0589-3.1111-2.0589-6.9489,0.92182-6.9489,2.0589-6.9489,2.0589,3.1111,2.0589,6.9489z" transform="matrix(0.76733058,0.44301853,-0.44301853,0.76733058,149.36864,63.883026)" fill="url(#radialGradient14944)"/>
   <path stroke-linejoin="round" d="m633.57-83.808c-0.66823-1.7735,0.19616-3.7651,1.9307-4.4483,0.37217-0.14661,0.76688-0.22441,1.1657-0.22977l0.0443,3.4409z" transform="matrix(-2.4502897,-1.4146755,-0.88978177,1.5411472,2117.3761,1304.7608)" stroke-dashoffset="5.60000009" stroke="#000" stroke-linecap="round" stroke-miterlimit="4" stroke-dasharray="none" stroke-width="0.89131218" fill="#F00"/>
   <path stroke-linejoin="round" d="m633.57-83.808c-0.66823-1.7735,0.19616-3.7651,1.9307-4.4483,0.37217-0.14661,0.76688-0.22441,1.1657-0.22977l0.0443,3.4409z" transform="matrix(2.4502897,1.4146755,-0.88978177,1.5411472,-1005.7399,-498.27473)" stroke-dashoffset="5.60000009" stroke="#000" stroke-linecap="round" stroke-miterlimit="4" stroke-dasharray="none" stroke-width="0.89131218" fill="#F00"/>
   <path d="m666.47-80.545c0,9.4819-1.8962,17.168-4.2354,17.168-2.3391,0-4.2354-7.6866-4.2354-17.168,0-9.4819,1.8962-17.168,4.2354-17.168,2.3391,0,4.2354,7.6866,4.2354,17.168z" transform="matrix(1.0209095,0.58942241,-0.58942241,1.0209095,-82.329108,-52.724359)" stroke="#000" stroke-dasharray="none" stroke-miterlimit="4" stroke-width="1.69657612" fill="none"/>
   <path stroke-linejoin="round" d="m640.45-83.116c0,1.1278-1.7608,2.0421-3.9329,2.0421-2.0723,0-3.7891-0.83496-3.9244-1.9087" transform="matrix(0.92891513,0.53630941,-0.49804599,0.86264095,3.338907,-5.2579238)" stroke-dashoffset="5.60000009" stroke="#000" stroke-linecap="round" stroke-miterlimit="4" stroke-dasharray="none" stroke-width="1.93489575" fill="none"/>
   <path stroke-linejoin="round" d="m640.45-83.116c0,1.1278-1.7608,2.0421-3.9329,2.0421-2.0723,0-3.7891-0.83496-3.9244-1.9087" transform="matrix(0.92891513,0.53630941,-0.49804599,0.86264095,13.699402,-23.202827)" stroke-dashoffset="5.60000009" stroke="#000" stroke-linecap="round" stroke-miterlimit="4" stroke-dasharray="none" stroke-width="1.93489575" fill="none"/>
   <path stroke-linejoin="round" d="m631.2,272.14c-0.52859-0.75354-0.44805-2.6984,0.21604-5.2158,0.29376-1.1136,0.70689-2.4465,0.76296-2.4615,0.0201-0.005,0.15391,0.13793,0.29706,0.31872,1.0909,1.3767,3.2836,2.6361,5.0046,2.8746,0.21534,0.0299,0.39577,0.0699,0.40091,0.089,0.0258,0.0964-1.6654,1.8582-2.5181,2.6231-0.98056,0.87961-1.6818,1.3828-2.4351,1.7471-0.55993,0.27083-0.92883,0.36665-1.2513,0.325-0.29847-0.0385-0.28948-0.0329-0.47707-0.30015z" stroke-dashoffset="5.60000009" stroke="#000" stroke-linecap="round" stroke-miterlimit="4" stroke-dasharray="none" stroke-width="1" fill="#cacac7"/>
   <rect stroke-linejoin="round" ry="0.72927" stroke-dasharray="none" stroke-dashoffset="5.60000009" transform="matrix(0.8660254,0.50000001,-0.50000001,0.8660254,0,0)" height="8.9597" width="1.4651" stroke="#000" stroke-linecap="round" stroke-miterlimit="4" y="-85.277" x="682.27" stroke-width="1" fill="#F00"/>
   <path stroke-linejoin="round" d="m644.15,246.6c-0.60453-0.61806-1.0113-1.3026-0.99911-1.6812,0.0123-0.38321,2.1186-2.8357,3.6685-4.2715,1.8092-1.676,3.5238-2.5899,4.1647-2.2198,0.12793,0.0739,0.2969,0.43034,0.39266,0.82842,0.37153,1.5444-0.14655,4.2541-1.534,8.0232l-0.39856,1.0827-0.46454,0.1352c-0.7853,0.22856-1.7247,0.003-3.1249-0.74989-0.86979-0.46764-1.3686-0.8038-1.7048-1.1471z" stroke-dashoffset="5.60000009" stroke="#000" stroke-linecap="round" stroke-miterlimit="4" stroke-dasharray="none" stroke-width="1" fill="#F00"/>
   <path stroke-linejoin="round" d="m665.03-82.042c0,1.2224-0.99095,2.2133-2.2134,2.2133s-2.2134-0.99095-2.2134-2.2133,0.99095-2.2133,2.2134-2.2133,2.2134,0.99095,2.2134,2.2133z" transform="matrix(1.0209095,0.58942241,-0.58942241,1.0209095,-82.50547,-53.807111)" stroke-dashoffset="5.60000009" filter="url(#filter14839)" stroke="#000" stroke-linecap="round" stroke-miterlimit="4" stroke-dasharray="none" stroke-width="0.84828812" fill="#99dcff"/>
   <path d="m613.97,896c-1.758-0.48752-3.809-2.1463-3.809-3.0806,0-0.35203,0.51463-1.5868,1.7107-4.1045,1.8143-3.8192,3.8854-7.3662,6.4895-11.114l0.62115-0.89405,0.38731,0.50786c1.0165,1.333,3.4369,2.7045,5.1781,2.9341,0.29726,0.0392,0.54047,0.0813,0.54047,0.0935,0,0.1142-2.0334,4.19-2.6611,5.334-2.0595,3.7535-5.3138,8.7216-6.6398,10.136-0.2771,0.29568-0.37403,0.3335-0.83383,0.32537-0.28615-0.005-0.72874-0.067-0.98353-0.13768zm6.4084-9.6949c0.1557-0.0358,0.2831-0.10877,0.2831-0.16213,0-0.0534,0.0463-0.0684,0.10295-0.0334,0.0566,0.035,0.10294,0.0118,0.10294-0.0515s0.0399-0.0904,0.0888-0.0602c0.13979,0.0864,0.88143-0.6584,1.242-1.2473,0.24621-0.40209,0.34716-0.71615,0.40539-1.2611,0.0431-0.40325,0.0377-0.72566-0.0122-0.72566-0.0494,0-0.0764-0.0811-0.0601-0.18016,0.0163-0.0991,0.002-0.22648-0.0315-0.2831-0.0336-0.0566-0.11713-0.27667-0.18557-0.48899-0.0684-0.21233-0.17491-0.38605-0.23657-0.38605-0.0617,0-0.0847-0.0274-0.0513-0.0608,0.0335-0.0335-0.0928-0.20719-0.28069-0.38605-0.54097-0.51509-0.75342-0.67309-0.81808-0.60843-0.0331,0.0331-0.0602,0.006-0.0602-0.0599,0-0.0661-0.0347-0.11275-0.0772-0.10376-0.0425,0.009-0.1467-0.0117-0.23163-0.0459-0.89789-0.36169-2.287-0.2584-2.7612,0.20533-0.0748,0.0732-0.19063,0.13324-0.25736,0.1335-0.23555,0.00093-0.74597,0.59021-1.0768,1.2432-0.25583,0.50492-0.33525,0.7945-0.33652,1.2271-0.002,0.84483,0.032,1.1773,0.12878,1.2429,0.0479,0.0325,0.10774,0.16619,0.13296,0.29716,0.0481,0.25003,0.12816,0.35016,0.87043,1.0893,0.41234,0.41061,0.80603,0.6087,1.6011,0.80561,0.22909,0.0567,1.0818,0.00079,1.5185-0.0996z" transform="translate(23.161198,-630.0675)" fill="#FFF"/>
  </g>
 </g>
</svg>
