<!-- Created with Inkscape (http://www.inkscape.org/) -->
<svg xmlns:rdf="http://www.w3.org/1999/02/22-rdf-syntax-ns#" xmlns="http://www.w3.org/2000/svg" version="1.1" xmlns:cc="http://creativecommons.org/ns#" xmlns:xlink="http://www.w3.org/1999/xlink" viewBox="0 0 52.321 50.374" xmlns:dc="http://purl.org/dc/elements/1.1/">
 <defs></defs>
 <metadata>
  <rdf:RDF>
   <cc:Work rdf:about="">
    <dc:format>image/svg+xml</dc:format>
    <dc:type rdf:resource="http://purl.org/dc/dcmitype/StillImage"/>
    <dc:title/>
    <cc:license rdf:resource="https://www.gnu.org/licenses/gpl.html"/> 
    <dc:creator> 
     <cc:Agent> 
      <dc:title>Glen Reesor &lt;glen@glenreesor.ca&gt;</dc:title> 
     </cc:Agent> 
    </dc:creator>
   </cc:Work>
  </rdf:RDF>
 </metadata>
 <g transform="translate(-347.19904,-391.61479)">
  <g stroke-linejoin="round" stroke-dashoffset="5.60000009" transform="translate(-13.813793,167.88739)" stroke-linecap="round" stroke-miterlimit="4" stroke-dasharray="none">
   <path d="m616.6,785.73c0,18.159-6.3316,32.88-14.142,32.88-7.8105,0-14.142-14.721-14.142-32.88s6.3316-32.88,14.142-32.88c7.8105,0,14.142,14.721,14.142,32.88z" transform="matrix(0.05686039,-0.3224713,0.3224713,0.05686039,85.009156,396.56993)" stroke="#006000" stroke-width="6.10787868" fill="#0F0"/>
   <path d="m616.6,785.73c0,18.159-6.3316,32.88-14.142,32.88-7.8105,0-14.142-14.721-14.142-32.88s6.3316-32.88,14.142-32.88c7.8105,0,14.142,14.721,14.142,32.88z" transform="matrix(-0.30769854,-0.11199311,0.11199311,-0.30769854,481.01086,572.10451)" stroke="#006000" stroke-width="6.10787821" fill="#0F0"/>
   <path d="m616.6,785.73c0,18.159-6.3316,32.88-14.142,32.88-7.8105,0-14.142-14.721-14.142-32.88s6.3316-32.88,14.142-32.88c7.8105,0,14.142,14.721,14.142,32.88z" transform="matrix(0.05686039,0.3224713,-0.3224713,0.05686039,620.82493,7.4750585)" stroke="#006000" stroke-width="6.10787868" fill="#0F0"/>
   <path d="m616.6,785.73c0,18.159-6.3316,32.88-14.142,32.88-7.8105,0-14.142-14.721-14.142-32.88s6.3316-32.88,14.142-32.88c7.8105,0,14.142,14.721,14.142,32.88z" transform="matrix(0.25083815,0.2104782,-0.2104782,0.25083815,409.74235,-85.865812)" stroke="#006000" stroke-width="6.10787821" fill="#0F0"/>
   <path d="m616.6,785.73c0,18.159-6.3316,32.88-14.142,32.88-7.8105,0-14.142-14.721-14.142-32.88s6.3316-32.88,14.142-32.88c7.8105,0,14.142,14.721,14.142,32.88z" transform="matrix(-0.16372297,-0.28357651,0.28357651,-0.16372297,250.14111,556.86857)" stroke="#006000" stroke-width="6.10787821" fill="#0F0"/>
   <path d="m616.6,785.73c0,18.159-6.3316,32.88-14.142,32.88-7.8105,0-14.142-14.721-14.142-32.88s6.3316-32.88,14.142-32.88c7.8105,0,14.142,14.721,14.142,32.88z" transform="matrix(-0.16372297,0.28357651,-0.28357651,-0.16372297,721.19411,212.17321)" stroke="#006000" stroke-width="6.10787821" fill="#0F0"/>
   <path d="m616.6,785.73c0,18.159-6.3316,32.88-14.142,32.88-7.8105,0-14.142-14.721-14.142-32.88s6.3316-32.88,14.142-32.88c7.8105,0,14.142,14.721,14.142,32.88z" transform="matrix(0.25083815,-0.2104782,0.2104782,0.25083815,60.619896,168.36919)" stroke="#006000" stroke-width="6.10787821" fill="#0F0"/>
   <path d="m616.6,785.73c0,18.159-6.3316,32.88-14.142,32.88-7.8105,0-14.142-14.721-14.142-32.88s6.3316-32.88,14.142-32.88c7.8105,0,14.142,14.721,14.142,32.88z" transform="matrix(0.32744595,0,0,0.32744595,188.8583,-21.795671)" stroke="#006000" stroke-width="6.10787821" fill="#0F0"/>
   <path d="m616.6,785.73c0,18.159-6.3316,32.88-14.142,32.88-7.8105,0-14.142-14.721-14.142-32.88s6.3316-32.88,14.142-32.88c7.8105,0,14.142,14.721,14.142,32.88z" transform="matrix(-0.30769854,0.11199311,-0.11199311,-0.30769854,666.72339,435.64714)" stroke="#006000" stroke-width="6.10787821" fill="#0F0"/>
   <path d="m666.8,841.95c0,12.497-10.131,22.627-22.627,22.627-12.497,0-22.627-10.131-22.627-22.627,0-12.497,10.131-22.627,22.627-22.627,12.497,0,22.627,10.131,22.627,22.627z" transform="matrix(0.32744595,0,0,0.32744595,175.32398,-26.758931)" stroke="#FFF" stroke-width="6.10787821" fill="#FF0"/>
  </g>
 </g>
</svg>
