<!-- Created with Inkscape (http://www.inkscape.org/) -->
<svg xmlns:rdf="http://www.w3.org/1999/02/22-rdf-syntax-ns#" xmlns="http://www.w3.org/2000/svg" height="100%" width="100%" version="1.1" xmlns:cc="http://creativecommons.org/ns#" xmlns:xlink="http://www.w3.org/1999/xlink" viewBox="0 0 37.236335 50.001654" xmlns:dc="http://purl.org/dc/elements/1.1/">
 <defs>
  <linearGradient id="linearGradient7936" y2="460.46" gradientUnits="userSpaceOnUse" x2="64.423" gradientTransform="matrix(0.86670521,0,0,0.86670521,6.2826959,62.381072)" y1="460.46" x1="29.479">
   <stop stop-color="#FF0" offset="0"/>
   <stop stop-color="#ffffd1" offset="1"/>
  </linearGradient>
  <linearGradient id="linearGradient7944" y2="480.58" gradientUnits="userSpaceOnUse" x2="61.032" gradientTransform="matrix(0.86670521,0,0,0.86670521,6.2826959,62.381072)" y1="480.58" x1="32.869">
   <stop stop-color="#FF0" offset="0"/>
   <stop stop-color="#FFF" offset="1"/>
  </linearGradient>
 </defs>
 <metadata>
  <rdf:RDF>
   <cc:Work rdf:about="">
    <dc:format>image/svg+xml</dc:format>
    <dc:type rdf:resource="http://purl.org/dc/dcmitype/StillImage"/>
    <dc:title/>
    <cc:license rdf:resource="https://www.gnu.org/licenses/gpl.html"/> 
    <dc:creator> 
     <cc:Agent> 
      <dc:title>Glen Reesor &lt;glen@glenreesor.ca&gt;</dc:title> 
     </cc:Agent> 
    </dc:creator>
   </cc:Work>
  </rdf:RDF>
 </metadata>
 <g transform="matrix(0.99633149,0,0,0.99633149,-28.424643,-439.22825)" stroke-miterlimit="4" stroke-dasharray="none" stroke-width="2.00736403">
  <rect stroke-linejoin="round" stroke-dasharray="none" stroke-dashoffset="5.60000009" ry="8.0787" height="30.406" width="28.552" stroke="#000" stroke-linecap="butt" stroke-miterlimit="4" y="446.26" x="32.699" stroke-width="2.0074" fill="url(#linearGradient7936)"/>
  <rect stroke-linejoin="round" stroke-dasharray="none" stroke-dashoffset="5.60000009" ry="0.99338" height="3.7389" width="22.676" stroke="#000" stroke-linecap="butt" stroke-miterlimit="4" y="477.04" x="35.637" stroke-width="2.0074" fill="url(#linearGradient7944)"/>
  <path stroke-linejoin="round" d="m-32.516,1066.6c0,1.6541-1.3408,2.9949-2.9949,2.9949-1.654,0-2.9949-1.3408-2.9949-2.9949,0-1.654,1.3408-2.9948,2.9949-2.9948,1.654,0,2.9949,1.3408,2.9949,2.9948z" transform="matrix(0.58824071,0,0,0.58824071,64.127758,-169.2726)" stroke-dashoffset="5.60000009" stroke="#000" stroke-linecap="butt" stroke-miterlimit="4" stroke-dasharray="none" stroke-width="3.41248751" fill="#000"/>
  <path stroke-linejoin="round" d="m-32.516,1066.6c0,1.6541-1.3408,2.9949-2.9949,2.9949-1.654,0-2.9949-1.3408-2.9949-2.9949,0-1.654,1.3408-2.9948,2.9949-2.9948,1.654,0,2.9949,1.3408,2.9949,2.9948z" transform="matrix(0.58824071,0,0,0.58824071,72.656375,-168.90175)" stroke-dashoffset="5.60000009" stroke="#000" stroke-linecap="butt" stroke-miterlimit="4" stroke-dasharray="none" stroke-width="3.41248751" fill="#000"/>
  <path stroke-linejoin="round" d="m-79.15,1055.2c0,4.135-6.7042,7.4872-14.974,7.4872-7.8561,0-14.377-3.0357-14.936-6.9538" transform="matrix(0.35019107,0,0,0.23786624,79.547632,215.77381)" stroke-dashoffset="5.60000009" stroke="#000" stroke-linecap="butt" stroke-miterlimit="4" stroke-dasharray="none" stroke-width="6.95516109" fill="none"/>
  <path d="m59.7,459.27c-2.1455-0.72587-4.1122-4.6343-4.5137-8.9701-0.12747-1.3767-0.41419-2.503-0.63713-2.503-0.22295,0-0.61847-0.26522-0.87894-0.58938-0.41629-0.51804-1.8968,0.0199-12.237,4.449-6.4699,2.7711-11.816,4.9901-11.881,4.9311-0.38563-0.35093,1.1643-4.6076,2.4242-6.6577,3.9124-6.3662,12.192-10.077,19.746-8.8483,3.8727,0.62977,7.3989,2.2203,10.126,4.5673,3.1565,2.7165,4.3548,4.662,3.9924,6.4812-0.49294,2.4744-1.7687,5.1409-2.9243,6.1124-1.3998,1.1767-2.107,1.4026-3.216,1.0274z" fill="#000"/>
  <path stroke-linejoin="miter" d="m36.096,482.65,21.599,0,0.12342,0m0.000643-0.0181,6.4179,7.2819m-28.279-7.2563-6.4179,7.2818m0.000642,0.0873,34.558,0" stroke="#000" stroke-linecap="round" stroke-miterlimit="4" stroke-dasharray="none" stroke-width="2.00736403" fill="#0000fd"/>
  <path stroke-linejoin="round" d="m9.4682,1116.1c0-0.096,0.90785-1.1853,2.0174-2.4202l2.0174-2.2452h10.48,10.48l1.4947,1.7256c0.82209,0.9491,1.7428,2.0382,2.0461,2.4202l0.55138,0.6946h-14.543c-7.9988,0-14.543-0.079-14.543-0.175z" transform="translate(22.959442,-627.50049)" stroke-dashoffset="5.60000009" stroke="#00F" stroke-linecap="round" stroke-miterlimit="4" stroke-dasharray="none" stroke-width="2.00736403" fill="#0000fd"/>
 </g>
</svg>
