<!-- Created with Inkscape (http://www.inkscape.org/) -->
<svg xmlns:rdf="http://www.w3.org/1999/02/22-rdf-syntax-ns#" xmlns="http://www.w3.org/2000/svg" height="100%" width="100%" version="1.1" xmlns:cc="http://creativecommons.org/ns#" xmlns:xlink="http://www.w3.org/1999/xlink" viewBox="0 0 38.435927 51.181732" xmlns:dc="http://purl.org/dc/elements/1.1/">
 <defs>
  <linearGradient id="linearGradient9978" y2="460.46" gradientUnits="userSpaceOnUse" x2="64.423" gradientTransform="matrix(0.86670521,0,0,0.86670521,76.106969,61.978424)" y1="460.46" x1="29.479">
   <stop stop-color="#FF0" offset="0"/>
   <stop stop-color="#ffffd1" offset="1"/>
  </linearGradient>
  <linearGradient id="linearGradient9975" y2="480.58" gradientUnits="userSpaceOnUse" x2="61.032" gradientTransform="matrix(0.86670521,0,0,0.86670521,76.106969,61.978424)" y1="480.58" x1="32.869">
   <stop stop-color="#FF0" offset="0"/>
   <stop stop-color="#FFF" offset="1"/>
  </linearGradient>
 </defs>
 <metadata>
  <rdf:RDF>
   <cc:Work rdf:about="">
    <dc:format>image/svg+xml</dc:format>
    <dc:type rdf:resource="http://purl.org/dc/dcmitype/StillImage"/>
    <dc:title/>
    <cc:license rdf:resource="https://www.gnu.org/licenses/gpl.html"/> 
    <dc:creator> 
     <cc:Agent> 
      <dc:title>Glen Reesor &lt;glen@glenreesor.ca&gt;</dc:title> 
     </cc:Agent> 
    </dc:creator>
   </cc:Work>
  </rdf:RDF>
 </metadata>
 <g stroke-dasharray="none" stroke-miterlimit="4" transform="translate(-98.297939,-439.44344)">
  <rect stroke-linejoin="round" stroke-dashoffset="5.60000009" ry="8.0787" height="30.406" width="28.552" stroke="#000" stroke-linecap="butt" y="445.86" x="102.52" stroke-width="2" fill="url(#linearGradient9978)"/>
  <rect stroke-linejoin="round" stroke-dashoffset="5.60000009" ry="0.99338" height="3.7389" width="22.676" stroke="#000" stroke-linecap="butt" y="476.63" x="105.46" stroke-width="2" fill="url(#linearGradient9975)"/>
  <path stroke-linejoin="round" d="m-32.516,1066.6c0,1.6541-1.3408,2.9949-2.9949,2.9949-1.654,0-2.9949-1.3408-2.9949-2.9949,0-1.654,1.3408-2.9948,2.9949-2.9948,1.654,0,2.9949,1.3408,2.9949,2.9948z" transform="matrix(0.58824071,0,0,0.58824071,133.95203,-169.67525)" stroke-dashoffset="5.60000009" stroke="#000" stroke-linecap="butt" stroke-width="3.39996862" fill="#000"/>
  <path stroke-linejoin="round" d="m-32.516,1066.6c0,1.6541-1.3408,2.9949-2.9949,2.9949-1.654,0-2.9949-1.3408-2.9949-2.9949,0-1.654,1.3408-2.9948,2.9949-2.9948,1.654,0,2.9949,1.3408,2.9949,2.9948z" transform="matrix(0.58824071,0,0,0.58824071,142.48065,-169.3044)" stroke-dashoffset="5.60000009" stroke="#000" stroke-linecap="butt" stroke-width="3.39996862" fill="#000"/>
  <path stroke-linejoin="round" d="m-79.15,1055.2c0,4.135-6.7042,7.4872-14.974,7.4872-7.8561,0-14.377-3.0357-14.936-6.9538" transform="matrix(0.35019107,0,0,0.23786624,149.3719,215.37116)" stroke-dashoffset="5.60000009" stroke="#000" stroke-linecap="butt" stroke-width="6.92964602" fill="none"/>
  <path d="m129.52,458.86c-2.1455-0.72587-4.1122-4.6343-4.5137-8.9701-0.12747-1.3767-0.41419-2.503-0.63713-2.503-0.22295,0-0.61847-0.26522-0.87893-0.58938-0.41629-0.51804-1.8968,0.0199-12.237,4.449-6.4699,2.7711-11.816,4.9901-11.881,4.9311-0.38563-0.35093,1.1643-4.6076,2.4242-6.6577,3.9124-6.3662,12.192-10.077,19.746-8.8483,3.8727,0.62977,7.3989,2.2203,10.126,4.5673,3.1565,2.7165,4.3548,4.662,3.9924,6.4812-0.49294,2.4744-1.7687,5.1409-2.9243,6.1124-1.3998,1.1767-2.107,1.4026-3.216,1.0274z" stroke="#3e0000" stroke-width="2" fill="#b14c00"/>
  <path stroke-linejoin="miter" d="m105.92,482.25,21.599,0,0.12342,0m0.00064-0.0181,6.418,7.2819m-28.279-7.2563-6.4179,7.2818m0.000642,0.0873,34.558,0" stroke="#000" stroke-linecap="round" stroke-width="2" fill="#0000fd"/>
  <path stroke-linejoin="round" d="m102.25,488.18c0-0.096,0.90786-1.1853,2.0174-2.4202l2.0174-2.2452h10.48,10.48l1.4947,1.7256c0.82209,0.9491,1.7428,2.0382,2.0461,2.4202l0.55138,0.6946h-14.543c-7.9988,0-14.543-0.079-14.543-0.175z" stroke-dashoffset="5.60000009" stroke="#00a000" stroke-linecap="round" stroke-width="0.60505444" fill="#00a000"/>
 </g>
</svg>
