<!-- Created with Inkscape (http://www.inkscape.org/) -->
<svg xmlns:rdf="http://www.w3.org/1999/02/22-rdf-syntax-ns#" xmlns="http://www.w3.org/2000/svg" version="1.1" xmlns:cc="http://creativecommons.org/ns#" xmlns:xlink="http://www.w3.org/1999/xlink" viewBox="0 0 60.688 48.562" xmlns:dc="http://purl.org/dc/elements/1.1/">
 <defs></defs>
 <metadata>
  <rdf:RDF>
   <cc:Work rdf:about="">
    <dc:format>image/svg+xml</dc:format>
    <dc:type rdf:resource="http://purl.org/dc/dcmitype/StillImage"/>
    <dc:title/>
    <cc:license rdf:resource="https://www.gnu.org/licenses/gpl.html"/> 
    <dc:creator> 
     <cc:Agent> 
      <dc:title>Glen Reesor &lt;glen@glenreesor.ca&gt;</dc:title> 
     </cc:Agent> 
    </dc:creator>
   </cc:Work>
  </rdf:RDF>
 </metadata>
 <g transform="translate(-361.72065,-502.52586)">
  <g stroke-linejoin="miter" transform="translate(232.1894,388.02586)" stroke-dashoffset="5.60000009" stroke="#000" stroke-linecap="round" stroke-dasharray="none" stroke-miterlimit="4">
   <path d="m177.94,115.51c-5.1626,0-9.5194,7.1271-10.866,16.883h-36.56v16.883h8.4608l4.2366-6.3132,3.6759,5.7222h9.034l3.9915-5.6611,3.6344,5.6611h4.1619c1.8031,7.9176,5.708,13.389,10.23,13.389,6.2366,0,11.289-10.42,11.289-23.282s-5.0528-23.282-11.289-23.282z" stroke-width="2" fill="#FF0"/>
   <path d="m559.32,657.74c0,4.8877-3.9623,8.85-8.85,8.85s-8.85-3.9623-8.85-8.85,3.9623-8.85,8.85-8.85,8.85,3.9623,8.85,8.85z" transform="matrix(0.60142564,0,0,0.82232699,-153.96566,-402.38173)" stroke-width="2.84391594" fill="#FFF"/>
  </g>
 </g>
</svg>
