<!-- Created with Inkscape (http://www.inkscape.org/) -->
<svg xmlns:rdf="http://www.w3.org/1999/02/22-rdf-syntax-ns#" xmlns="http://www.w3.org/2000/svg" version="1.1" xmlns:cc="http://creativecommons.org/ns#" xmlns:dc="http://purl.org/dc/elements/1.1/" viewBox="0 0 34.334 56.438">
 <metadata>
  <rdf:RDF>
   <cc:Work rdf:about="">
    <dc:format>image/svg+xml</dc:format>
    <dc:type rdf:resource="http://purl.org/dc/dcmitype/StillImage"/>
    <dc:title/>
    <cc:license rdf:resource="https://www.gnu.org/licenses/gpl.html"/> 
    <dc:creator> 
     <cc:Agent> 
      <dc:title>Glen Reesor &lt;glen@glenreesor.ca&gt;</dc:title> 
     </cc:Agent> 
    </dc:creator>
   </cc:Work>
  </rdf:RDF>
 </metadata>
 <g transform="translate(-496.80605,-564.45512)">
  <g transform="translate(-276.67258,463.36137)">
   <path stroke-linejoin="round" d="m802.15,114.17c0,6.7444-5.4673,12.212-12.212,12.212-6.7444,0-12.212-5.4673-12.212-12.212,0-6.7444,5.4673-12.212,12.212-12.212,6.7444,0,12.212,5.4673,12.212,12.212z" stroke-dashoffset="5.60000009" stroke="#000" stroke-linecap="butt" stroke-miterlimit="4" stroke-dasharray="none" stroke-width="1.74747705" fill="#000"/>
   <rect stroke-linejoin="round" stroke-dasharray="none" stroke-dashoffset="5.60000009" ry="12.316" height="29.684" width="24.631" stroke="#000" stroke-linecap="butt" stroke-miterlimit="4" y="122.89" x="778.15" stroke-width="2" fill="none"/>
   <path stroke-linejoin="round" d="m789.52,152.9c0,1.9999-3.3579,3.6211-7.4998,3.6211-4.1421,0-7.4998-1.6212-7.4998-3.6211s3.3579-3.6211,7.4998-3.6211c4.1421,0,7.4998,1.6212,7.4998,3.6211z" stroke-dashoffset="5.60000009" stroke="#000" stroke-linecap="butt" stroke-miterlimit="4" stroke-dasharray="none" stroke-width="2" fill="#ff7e00"/>
   <path stroke-linejoin="round" d="m781.33,152.21c-0.63944,1.4963-2.1181,2.0545-3.3026,1.2468-0.45831-0.31252-0.82533-0.8023-1.0472-1.3975" stroke-dashoffset="5.60000009" stroke="#000" stroke-linecap="butt" stroke-miterlimit="4" stroke-dasharray="none" stroke-width="0.69582027" fill="none"/>
   <path stroke-linejoin="round" d="m786.68,152.28c-0.63944,1.4963-2.1181,2.0545-3.3026,1.2468-0.45831-0.31252-0.82533-0.8023-1.0472-1.3975" stroke-dashoffset="5.60000009" stroke="#000" stroke-linecap="butt" stroke-miterlimit="4" stroke-dasharray="none" stroke-width="0.69582027" fill="none"/>
   <path stroke-linejoin="round" d="m806.81,152.89c0,1.9999-3.3579,3.6211-7.4998,3.6211-4.1421,0-7.4998-1.6212-7.4998-3.6211s3.3579-3.6211,7.4998-3.6211c4.1421,0,7.4998,1.6212,7.4998,3.6211z" stroke-dashoffset="5.60000009" stroke="#000" stroke-linecap="butt" stroke-miterlimit="4" stroke-dasharray="none" stroke-width="2" fill="#f37e00"/>
   <path stroke-linejoin="round" d="m798.62,152.2c-0.63944,1.4963-2.1181,2.0545-3.3026,1.2468-0.45831-0.31252-0.82533-0.8023-1.0472-1.3975" stroke-dashoffset="5.60000009" stroke="#000" stroke-linecap="butt" stroke-miterlimit="4" stroke-dasharray="none" stroke-width="0.69582027" fill="none"/>
   <path stroke-linejoin="round" d="m803.97,152.27c-0.63944,1.4963-2.1181,2.0545-3.3026,1.2468-0.45831-0.31252-0.82533-0.8023-1.0472-1.3975" stroke-dashoffset="5.60000009" stroke="#000" stroke-linecap="butt" stroke-miterlimit="4" stroke-dasharray="none" stroke-width="0.69582027" fill="none"/>
   <path fill="#FFF" d="m788.24,114.24c0,2.901-1.6836,5.2529-3.7603,5.2529s-3.7603-2.3518-3.7603-5.2529c0-2.901,1.6836-5.2529,3.7603-5.2529s3.7603,2.3518,3.7603,5.2529z"/>
   <path fill="#000" d="m786.42,113.72c0,1.3662-0.7351,2.4739-1.6419,2.4739-0.90679,0-1.6419-1.1076-1.6419-2.4739s0.7351-2.4739,1.6419-2.4739c0.90679,0,1.6419,1.1076,1.6419,2.4739z"/>
   <path fill="#000" d="m805.44,129.76c2.207,6.0637,2.8006,11.415,1.3257,11.952-1.475,0.53684-4.4598-3.9436-6.667-10.008-2.207-6.0638-2.8006-11.415-1.3257-11.952,1.475-0.53684,4.4598,3.9436,6.667,10.008z"/>
   <path fill="#000" d="m780.96,132.27c-2.207,6.0637-5.1921,10.545-6.667,10.008-1.475-0.53684-0.88151-5.8877,1.3257-11.952,2.207-6.0638,5.1921-10.545,6.667-10.008,1.475,0.53684,0.88152,5.8877-1.3257,11.952z"/>
   <path fill="#FFF" d="m798.76,114.24c0,2.901-1.6836,5.2529-3.7603,5.2529s-3.7603-2.3518-3.7603-5.2529c0-2.901,1.6836-5.2529,3.7603-5.2529s3.7603,2.3518,3.7603,5.2529z"/>
   <path fill="none" d="m789.08,150.81c-0.62768-0.63216-2.3442-1.4709-3.6315-1.7745-0.47764-0.11258-1.7169-0.24586-2.7539-0.29604l-1.8855-0.0914-0.5174-0.86266c-0.84943-1.4163-1.001-2.4634-1.001-6.9137v-3.9246l0.55595-1.6494c1.0907-3.2358,2.0265-8.0682,1.7383-8.9761-0.0644-0.20283,0.0613-0.40155,0.42559-0.67302,0.72208-0.53806,1.6834-1.0798,1.9075-1.075,0.10355,0.002,0.53846,0.36106,0.96639,0.79742,3.0343,3.0941,8.1519,3.145,11.356,0.11293l0.95246-0.90129,0.75804,0.41257c0.41694,0.22691,1.0678,0.71798,1.4464,1.0913l0.68841,0.67867,0.089,1.5469c0.0962,1.6732,0.38954,3.2734,1.0033,5.473,0.38624,1.3842,0.39008,1.4612,0.3436,6.8882l-0.0472,5.4883-0.63157,1.2433-0.63158,1.2433-1.8158,0.0984c-0.99867,0.054-2.171,0.18815-2.6052,0.29788-1.2488,0.31564-2.9448,1.154-3.6141,1.7865-0.57809,0.54628-0.67088,0.57906-1.5789,0.55802-0.88053-0.0203-1.013-0.071-1.5174-0.57894z"/>
   <path fill="#000" d="m796.78,113.65c0,1.4498-0.73511,2.6251-1.6419,2.6251s-1.6419-1.1753-1.6419-2.6251,0.7351-2.6252,1.6419-2.6252c0.90679,0,1.6419,1.1753,1.6419,2.6252z"/>
   <path stroke-linejoin="miter" d="m779.1,146.73,22.736-0.15789" stroke="#000" stroke-linecap="butt" stroke-width="1.0845114px" fill="none"/>
   <path fill="#000" d="m789.23,150.95c-1.1346-1.1897-3.1522-1.9517-5.7576-2.1746-0.92493-0.0792-1.8907-0.13308-2.1461-0.1199-0.36489,0.0189-0.54247-0.0911-0.82893-0.51253-0.20051-0.29508-0.36454-0.59704-0.36454-0.67104,0-0.0741,1.5454-0.13464,3.4341-0.13475,1.8888-0.0001,6.59-0.0475,10.447-0.1051l7.013-0.10486-0.38407,0.69716-0.38409,0.69716-1.8132,0.17058c-3.093,0.29097-4.8966,0.90279-6.1981,2.1025-0.66046,0.60881-0.75901,0.64744-1.6326,0.64032-0.82404-0.006-0.98145-0.0619-1.385-0.48502z"/>
   <path d="m797.64,119.89c0,2.5756-3.5667,4.6635-7.9665,4.6635-4.3999,0-7.9665-2.0879-7.9665-4.6635s3.5667-4.6635,7.9665-4.6635c4.3999,0,7.9665,2.0879,7.9665,4.6635z" stroke="#000" stroke-dasharray="none" stroke-miterlimit="4" stroke-width="1" fill="#ff8c00"/>
   <path d="m794.18,118.83c0,1.2577-1.9815,2.2773-4.4259,2.2773s-4.4259-1.0196-4.4259-2.2773" stroke="#000" stroke-width="0.82098854" fill="none"/>
   <path d="m759.18,772.47c-0.87228-1.8588-1.01-2.7855-1.013-6.8162l-0.003-3.5147,0.52172-1.7795c0.28695-0.97874,0.62551-2.1539,0.75236-2.6115,0.4584-1.6535,2.6057-3.922,4.744-5.0117l0.95075-0.48451,1.1669,0.17761c2.0004,0.30448,3.6353,0.20976,6.2343-0.3612,0.52541-0.11543,2.5422,0.8899,3.7816,1.8851,1.5925,1.2787,2.1747,2.0971,2.5738,3.6186,0.1891,0.72081,0.64651,2.1954,1.0165,3.277l0.67264,1.9664-0.0653,3.5547c-0.0702,3.8243-0.20319,4.5854-1.1166,6.3909l-0.36348,0.71851h-5.1158c-2.8137,0-7.1532,0.0447-9.6434,0.0992l-4.5276,0.0993-0.56688-1.208z" stroke-opacity="0" transform="translate(21.133227,-627.50049)" stroke-miterlimit="4" fill="#FFF"/>
  </g>
 </g>
</svg>
