<!-- Created with Inkscape (http://www.inkscape.org/) -->
<svg xmlns:rdf="http://www.w3.org/1999/02/22-rdf-syntax-ns#" xmlns="http://www.w3.org/2000/svg" version="1.1" xmlns:cc="http://creativecommons.org/ns#" xmlns:xlink="http://www.w3.org/1999/xlink" viewBox="0 0 49.076 49.076" xmlns:dc="http://purl.org/dc/elements/1.1/">
 <defs></defs>
 <metadata>
  <rdf:RDF>
   <cc:Work rdf:about="">
    <dc:format>image/svg+xml</dc:format>
    <dc:type rdf:resource="http://purl.org/dc/dcmitype/StillImage"/>
    <dc:title/>
    <cc:license rdf:resource="https://www.gnu.org/licenses/gpl.html"/> 
    <dc:creator> 
     <cc:Agent> 
      <dc:title>Glen Reesor &lt;glen@glenreesor.ca&gt;</dc:title> 
     </cc:Agent> 
    </dc:creator>
   </cc:Work>
  </rdf:RDF>
 </metadata>
 <g transform="translate(-54.78384,-580.41554)">
  <g stroke-linejoin="round" transform="translate(-171.67346,701.16303)" stroke-dashoffset="5.60000009" stroke="#000" stroke-linecap="round" stroke-dasharray="none" stroke-miterlimit="4">
   <path d="M105,642.5c0,18.5-14.998,33.5-33.5,33.5s-33.5-15-33.5-33.5,14.998-33.5,33.5-33.5,33.5,14.998,33.5,33.5z" transform="matrix(0.70422535,0,0,0.70422535,200.64304,-548.67443)" stroke-width="2.67272401" fill="#FF0"/>
   <path d="M105,642.5c0,18.5-14.998,33.5-33.5,33.5s-33.5-15-33.5-33.5,14.998-33.5,33.5-33.5,33.5,14.998,33.5,33.5z" transform="matrix(0.14878001,0,0,0.14878001,229.44188,-198.16011)" stroke-width="12.65089321" fill="#000"/>
   <path d="M105,642.5c0,18.5-14.998,33.5-33.5,33.5s-33.5-15-33.5-33.5,14.998-33.5,33.5-33.5,33.5,14.998,33.5,33.5z" transform="matrix(0.14878001,0,0,0.14878001,250.81763,-198.16011)" stroke-width="12.65089321" fill="#000"/>
   <path d="m87.652,642.5c0,10.617-7.2317,19.224-16.152,19.224-8.9208,0-16.152-8.6069-16.152-19.224s7.2317-19.224,16.152-19.224c8.9208,0,16.152,8.6069,16.152,19.224z" transform="matrix(0.4592813,0,0,0.38369582,218.15653,-333.20811)" stroke-width="4.76427794" fill="none"/>
  </g>
 </g>
</svg>
