<!-- Created with Inkscape (http://www.inkscape.org/) -->
<svg xmlns:rdf="http://www.w3.org/1999/02/22-rdf-syntax-ns#" xmlns="http://www.w3.org/2000/svg" version="1.1" xmlns:cc="http://creativecommons.org/ns#" xmlns:xlink="http://www.w3.org/1999/xlink" viewBox="0 0 50.16 49.164" xmlns:dc="http://purl.org/dc/elements/1.1/">
 <defs></defs>
 <metadata>
  <rdf:RDF>
   <cc:Work rdf:about="">
    <dc:format>image/svg+xml</dc:format>
    <dc:type rdf:resource="http://purl.org/dc/dcmitype/StillImage"/>
    <dc:title/>
    <cc:license rdf:resource="https://www.gnu.org/licenses/gpl.html"/> 
    <dc:creator> 
     <cc:Agent> 
      <dc:title>Glen Reesor &lt;glen@glenreesor.ca&gt;</dc:title> 
     </cc:Agent> 
    </dc:creator>
   </cc:Work>
  </rdf:RDF>
 </metadata>
 <g transform="translate(-288.93298,-646.17837)">
  <g stroke-linejoin="round" transform="translate(-127.89623,767.59106)" stroke-dashoffset="5.60000009" stroke="#000" stroke-linecap="round" stroke-dasharray="none" stroke-miterlimit="4">
   <path d="m105,642.5a33.5,33.5,0,1,1,-67,0,33.5,33.5,0,1,1,67,0z" transform="matrix(0.70422535,0,0,0.70422535,391.05896,-549.29561)" stroke-width="2.83999991" fill="#FF0"/>
   <path d="m103.07,653.72a33.5,33.5,0,0,1,-63.006,0.35252" transform="matrix(0.4592813,0,0,-0.38369582,408.16877,166.20193)" stroke-width="7.14641666" fill="none"/>
   <path d="m105,642.5a33.5,33.5,0,1,1,-67,0,33.5,33.5,0,1,1,67,0z" transform="matrix(0.14878001,0,0,0.14878001,419.8578,-198.78133)" stroke-width="13.44266605" fill="#000"/>
   <path d="m105,642.5a33.5,33.5,0,1,1,-67,0,33.5,33.5,0,1,1,67,0z" transform="matrix(0.14878001,0,0,0.14878001,441.23353,-198.78133)" stroke-width="13.44266605" fill="#000"/>
  </g>
 </g>
</svg>
