<!-- Created with Inkscape (http://www.inkscape.org/) -->
<svg xmlns:rdf="http://www.w3.org/1999/02/22-rdf-syntax-ns#" xmlns="http://www.w3.org/2000/svg" version="1.1" xmlns:cc="http://creativecommons.org/ns#" xmlns:xlink="http://www.w3.org/1999/xlink" viewBox="0 0 20.969 50.407" xmlns:dc="http://purl.org/dc/elements/1.1/">
 <defs></defs>
 <metadata>
  <rdf:RDF>
   <cc:Work rdf:about="">
    <dc:format>image/svg+xml</dc:format>
    <dc:type rdf:resource="http://purl.org/dc/dcmitype/StillImage"/>
    <dc:title/>
    <cc:license rdf:resource="https://www.gnu.org/licenses/gpl.html"/> 
    <dc:creator> 
     <cc:Agent> 
      <dc:title>Glen Reesor &lt;glen@glenreesor.ca&gt;</dc:title> 
     </cc:Agent> 
    </dc:creator>
   </cc:Work>
  </rdf:RDF>
 </metadata>
 <g transform="translate(-363.82557,-594.34168)">
  <g stroke-linejoin="round" transform="translate(312.35683,823.15528)" stroke-dashoffset="5.60000009" stroke-linecap="butt" stroke-dasharray="none" stroke-miterlimit="4">
   <rect height="42.388" width="18.948" stroke="#34716f" y="-227.81" x="52.475" stroke-width="2" fill="#000"/>
   <rect height="6.0527" width="6.579" stroke="#34716f" y="-185.47" x="58.659" stroke-width="2" fill="#000"/>
   <path d="m373,338c0,7.1797-5.8203,13-13,13s-13-5.8203-13-13,5.8203-13,13-13,13,5.8203,13,13z" transform="matrix(0.44643337,0,0,0.44643337,-98.76768,-370.80994)" stroke="#F00" stroke-width="4.47995186" fill="#F00"/>
   <path d="m373,338c0,7.1797-5.8203,13-13,13s-13-5.8203-13-13,5.8203-13,13-13,13,5.8203,13,13z" transform="matrix(0.35714668,0,0,0.35714668,-66.62448,-328.39407)" stroke="#FFF" stroke-width="5.59993982" fill="none"/>
   <path d="m373,338c0,7.1797-5.8203,13-13,13s-13-5.8203-13-13,5.8203-13,13-13,13,5.8203,13,13z" transform="matrix(0.35714668,0,0,0.35714668,-66.62448,-316.1571)" stroke="#FFF" stroke-width="5.59993982" fill="none"/>
  </g>
 </g>
</svg>
